<svg width="16" height="16" viewBox="0 0 16 16" fill="none" xmlns="http://www.w3.org/2000/svg">
  <g opacity="0.4">
    <path fill-rule="evenodd" clip-rule="evenodd"
      d="M5.33329 8C5.33329 9.47276 6.5272 10.6667 7.99996 10.6667C9.47272 10.6667 10.6666 9.47276 10.6666 8C10.6666 6.52724 9.47272 5.33333 7.99996 5.33333C6.5272 5.33333 5.33329 6.52724 5.33329 8ZM6.66663 8C6.66663 8.73638 7.26358 9.33333 7.99996 9.33333C8.73634 9.33333 9.33329 8.73638 9.33329 8C9.33329 7.26362 8.73634 6.66667 7.99996 6.66667C7.26358 6.66667 6.66663 7.26362 6.66663 8Z"
      fill="#1D4473" />
    <path fill-rule="evenodd" clip-rule="evenodd"
      d="M7.99996 2C4.27228 2 1.14008 4.54955 0.251997 8C1.14008 11.4505 4.27228 14 7.99996 14C11.7276 14 14.8598 11.4505 15.7479 8C14.8598 4.54955 11.7276 2 7.99996 2ZM7.99996 12.6667C10.9837 12.6667 13.5124 10.7054 14.3618 8C13.5124 5.29458 10.9837 3.33333 7.99996 3.33333C5.01625 3.33333 2.48751 5.29458 1.63812 8C2.48751 10.7054 5.01625 12.6667 7.99996 12.6667Z"
      fill="#1D4473" />
  </g>
</svg>