<svg width="32" height="37" viewBox="0 0 32 37" fill="none" xmlns="http://www.w3.org/2000/svg">
  <path
    d="M4.91123 13.5589L3.11647 11.5839L1.32169 9.60894L3.93095 9.03949L6.54023 8.47008L5.72573 11.0145L4.91123 13.5589Z"
    fill="#E57B73" />
  <path
    d="M4.91169 14.0201C4.78194 14.0201 4.65941 13.9697 4.57292 13.8687L0.976182 9.91161C0.868064 9.78908 0.832014 9.6233 0.875261 9.46473C0.925716 9.30615 1.05546 9.19083 1.21403 9.15479L6.43254 8.02315C6.59112 7.98711 6.75691 8.04477 6.87224 8.1601C6.98035 8.28264 7.01638 8.45562 6.97314 8.60699L5.34417 13.6958C5.29371 13.8543 5.16397 13.9697 5.00539 14.0057C4.97656 14.0057 4.94051 14.0129 4.90447 14.0129L4.91169 14.0201ZM2.19432 9.8828L4.71708 12.665L5.86313 9.0899L2.19432 9.89001V9.8828Z"
    fill="#121E51" />
  <path
    d="M12.2363 2.08387L10.2613 3.87863L8.28633 5.67339L7.7169 3.06413L7.14749 0.45488L9.69188 1.26938L12.2363 2.08387Z"
    fill="#E57B73" />
  <path
    d="M8.28604 6.13473C8.23559 6.13473 8.19234 6.13471 8.14909 6.11308C7.99052 6.06263 7.87519 5.93291 7.83915 5.77433L6.70751 0.555822C6.67147 0.397248 6.72914 0.231477 6.84446 0.116151C6.967 0.00803254 7.13998 -0.0280104 7.29135 0.0224448L12.3801 1.65139C12.5387 1.70185 12.654 1.83161 12.6901 1.99019C12.7261 2.14876 12.6685 2.31453 12.5531 2.42986L8.59597 6.02659C8.50948 6.10588 8.40137 6.14916 8.28604 6.14916V6.13473ZM7.76707 1.13244L8.56716 4.80128L11.3494 2.27852L7.77429 1.13244H7.76707Z"
    fill="#121E51" />
  <path
    d="M3.93219 9.50072C3.72316 9.50072 3.52855 9.35656 3.4853 9.14032V9.08986C3.16095 7.66991 3.42764 6.22113 4.20609 4.99578C4.99175 3.77044 6.20269 2.92713 7.61543 2.61719C7.86771 2.55952 8.10558 2.71809 8.16324 2.97037C8.2209 3.21544 8.06232 3.46051 7.81725 3.51817C6.63516 3.77766 5.63326 4.47682 4.97734 5.49313C4.32863 6.50944 4.11239 7.72039 4.36467 8.89528V8.94574C4.42954 9.19081 4.27096 9.43584 4.02589 9.4935C3.98985 9.4935 3.96103 9.50072 3.92499 9.50072H3.93219Z"
    fill="#121E51" />
  <path
    d="M28.7059 12.0307C28.2806 12.0307 27.9562 12.1605 27.7328 12.4128C27.5238 12.6506 27.4084 12.9966 27.4084 13.4146V15.5987C27.4084 15.8509 27.2066 16.06 26.9471 16.06C26.6876 16.06 26.4858 15.8581 26.4858 15.5987V12.1677C26.4858 11.8001 26.3417 11.4469 26.075 11.1802C25.8155 10.9207 25.4623 10.7766 25.0947 10.7766C24.3307 10.7766 23.7036 11.3964 23.7036 12.1677V15.5987C23.7036 15.8726 23.4513 16.0816 23.1918 16.0528C22.9611 16.0311 22.781 15.8365 22.781 15.5987V11.0144C22.781 10.2504 22.1611 9.62332 21.3898 9.62332C20.6186 9.62332 19.9987 10.2432 19.9987 11.0144V15.5987C19.9987 15.8509 19.7969 16.06 19.5374 16.06C19.2779 16.06 19.0761 15.8581 19.0761 15.5987V9.59446L15.6523 4.52012C15.2271 3.91465 14.391 3.75609 13.7639 4.16694C13.4539 4.36876 13.2449 4.68589 13.1656 5.04628C13.0935 5.40668 13.1656 5.78149 13.3675 6.09143L16.1929 10.3945C16.265 10.4738 16.3083 10.5747 16.3083 10.6901V19.3612C16.3083 19.5413 16.2001 19.7071 16.0271 19.7792C15.8614 19.8513 15.6668 19.8153 15.5298 19.6927L10.8447 15.2166C10.3978 14.8418 10.023 14.7193 9.71305 14.7193C9.29499 14.7193 9.01387 14.9499 8.89134 15.0508C8.46607 15.404 8.24985 15.7716 8.22822 16.1465C8.21381 16.5501 8.43004 16.8961 8.61024 17.1195L12.7332 21.956C12.7332 21.956 12.762 21.992 12.7764 22.0137C13.1728 22.6624 13.4612 23.6571 13.7711 24.7094C14.1315 25.9348 14.5063 27.2034 15.0397 27.9386C16.2074 29.5459 16.3299 29.8631 16.6326 30.9442C16.6831 31.1244 16.7407 31.3335 16.82 31.5858C16.9714 32.0759 17.0363 32.5228 17.1083 33.431C17.1083 33.4454 17.1083 33.4526 17.1083 33.467C17.1083 33.8058 17.2813 34.1229 17.5913 34.3392C18.2616 34.8149 19.8329 35.615 22.8891 35.615C25.693 35.615 27.3652 35.0167 28.2734 34.5122C28.6914 34.2887 28.9149 33.8851 28.8644 33.467C28.7779 32.7246 28.7491 32.0038 28.7851 31.3119C28.8716 29.4162 29.1816 28.0107 29.751 25.9276C29.9744 25.1203 30.0898 24.3202 30.0898 23.5562V13.4075C30.0898 12.5713 29.5348 12.0307 28.6698 12.0307H28.7059Z"
    fill="#FFEDD8" />
  <path
    d="M28.7063 11.1153C28.1657 11.1153 27.6972 11.2595 27.3296 11.5406C27.2214 11.1586 27.0196 10.8127 26.7385 10.5243C26.2988 10.0919 25.7222 9.85397 25.1095 9.85397C24.5473 9.85397 24.0355 10.0558 23.6319 10.3874C23.358 9.41432 22.4642 8.70072 21.4119 8.70072C20.8641 8.70072 20.3523 8.89531 19.9559 9.21967C19.9559 9.21246 19.9487 9.20527 19.9415 9.19807L16.4312 4.00116C15.7104 2.97764 14.3265 2.71818 13.2814 3.40293C12.7696 3.74171 12.4164 4.25344 12.2867 4.86611C12.1641 5.47158 12.2867 6.08427 12.6182 6.59603L15.4077 10.8414V18.2944L11.4722 14.5391C10.4126 13.6453 9.25937 13.5805 8.32234 14.3517C7.68804 14.8779 7.35648 15.4689 7.32765 16.1176C7.30602 16.6654 7.51504 17.2133 7.92589 17.7178L12.0272 22.5327C12.3515 23.0805 12.6254 24.0031 12.9066 24.9762C13.2886 26.2808 13.685 27.6287 14.3121 28.4864C15.4293 30.0217 15.4942 30.2451 15.7609 31.2037C15.8113 31.3912 15.8762 31.6074 15.9483 31.8597C16.078 32.2778 16.1357 32.6814 16.2006 33.4887C16.2006 34.123 16.5177 34.7068 17.0655 35.096C17.9881 35.7519 19.7468 36.5376 22.8967 36.5376C26.0465 36.5376 27.7188 35.8745 28.7207 35.3267C29.4559 34.923 29.8739 34.159 29.7802 33.3517C29.701 32.6742 29.6793 32.0038 29.7082 31.3623C29.7946 29.5532 30.0902 28.1981 30.6452 26.1727C30.8902 25.2861 31.0128 24.4067 31.0128 23.5562V13.4075C31.0128 12.0812 30.0325 11.1153 28.6774 11.1153H28.7063ZM30.1262 23.5562C30.1262 24.3202 30.0109 25.1203 29.7875 25.9276C29.2108 28.0107 28.9081 29.4234 28.8216 31.3119C28.7855 32.0038 28.8144 32.7246 28.9009 33.467C28.9513 33.8851 28.7207 34.2887 28.3098 34.5122C27.4016 35.0167 25.7294 35.615 22.9255 35.615C19.8694 35.615 18.298 34.8149 17.6277 34.3392C17.325 34.123 17.1448 33.8058 17.1448 33.467C17.1448 33.4526 17.1448 33.4454 17.1448 33.431C17.0727 32.5228 17.0006 32.0759 16.8565 31.5858C16.7844 31.3407 16.7267 31.1317 16.6691 30.9443C16.3663 29.8631 16.251 29.546 15.0761 27.9386C14.5427 27.2034 14.1679 25.9348 13.8075 24.7095C13.4976 23.6571 13.2093 22.6624 12.8128 22.0137C12.7984 21.9921 12.784 21.9705 12.7696 21.956L8.64668 17.1195C8.45928 16.8961 8.24304 16.5501 8.26466 16.1465C8.27908 15.7645 8.50253 15.3969 8.9278 15.0509C9.05754 14.9428 9.33143 14.7193 9.74949 14.7193C10.0522 14.7193 10.427 14.8418 10.8811 15.2166L15.5663 19.6928C15.696 19.8225 15.8906 19.8513 16.0636 19.7793C16.2294 19.7072 16.3447 19.5414 16.3447 19.3612V10.6901C16.3447 10.5748 16.3015 10.4738 16.2294 10.3946L13.4039 6.09146C13.2021 5.78153 13.13 5.41391 13.2021 5.04631C13.2814 4.67871 13.4904 4.36879 13.8003 4.16697C14.4274 3.75612 15.2635 3.91469 15.6888 4.52015L19.1125 9.59449V15.5987C19.1125 15.851 19.3144 16.06 19.5739 16.06C19.8333 16.06 20.0352 15.8582 20.0352 15.5987V11.0145C20.0352 10.2504 20.655 9.62335 21.4263 9.62335C22.1975 9.62335 22.8174 10.2432 22.8174 11.0145V15.5987C22.8174 15.8365 22.9976 16.0312 23.2283 16.0528C23.4877 16.0816 23.74 15.8654 23.74 15.5987V12.1677C23.74 11.4037 24.3599 10.7766 25.1311 10.7766C25.4987 10.7766 25.8519 10.9208 26.1114 11.1802C26.3709 11.4469 26.5223 11.7929 26.5223 12.1677V15.5987C26.5223 15.851 26.7241 16.06 26.9836 16.06C27.2431 16.06 27.4449 15.8582 27.4449 15.5987V13.4147C27.4449 13.0038 27.553 12.6579 27.7692 12.4128C27.9927 12.1605 28.317 12.0308 28.7423 12.0308C29.6 12.0308 30.1623 12.5714 30.1623 13.4075V23.5562H30.1262Z"
    fill="#121E51" />
</svg>