<svg width="35" height="33" viewBox="0 0 35 33" fill="none" xmlns="http://www.w3.org/2000/svg">
  <path
    d="M33.7396 25.2704C33.7396 26.5351 32.7243 27.5504 31.4596 27.5504H22.9986C21.7428 27.5504 20.7186 26.5351 20.7186 25.2704C20.7186 24.6381 20.9769 24.077 21.3866 23.6584C21.8052 23.2487 22.3663 22.9904 22.9986 22.9904H31.4596C31.4596 22.9904 31.513 22.9904 31.5397 22.9904C32.7599 23.0349 33.7396 24.0324 33.7396 25.2704Z"
    fill="#FFEDD8" />
  <path
    d="M31.4601 28.1115H22.9991C21.4316 28.1115 20.1492 26.8379 20.1492 25.2615C20.1492 24.5045 20.4431 23.792 20.9774 23.2487C21.5207 22.7054 22.2332 22.4115 22.9903 22.4115H31.4512C31.4512 22.4115 31.5314 22.4115 31.5759 22.4115C33.1078 22.4738 34.3012 23.7207 34.3012 25.2526C34.3012 26.7845 33.0276 28.1026 31.4512 28.1026L31.4601 28.1115ZM31.4601 23.5515H22.9991C22.5449 23.5515 22.1174 23.7296 21.7879 24.0592C21.4673 24.3798 21.2892 24.8162 21.2892 25.2704C21.2892 26.2145 22.0551 26.9804 22.9991 26.9804H31.4601C32.4042 26.9804 33.1701 26.2145 33.1701 25.2704C33.1701 24.3264 32.4398 23.596 31.5135 23.5604C31.4957 23.5604 31.469 23.5604 31.4512 23.5604L31.4601 23.5515Z"
    fill="#121E51" />
  <path
    d="M31.9783 22.9904H21.6648C20.4179 22.9904 19.4026 21.9661 19.4026 20.7282C19.4026 19.4813 20.4269 18.466 21.6648 18.466H31.9783C33.2252 18.466 34.2405 19.4902 34.2405 20.7282C34.2405 21.9751 33.2163 22.9904 31.9783 22.9904Z"
    fill="#FFEDD8" />
  <path
    d="M31.9788 23.5604H21.6653C20.1067 23.5604 18.8331 22.2868 18.8331 20.7282C18.8331 19.1696 20.1067 17.896 21.6653 17.896H31.9788C33.5374 17.896 34.811 19.1696 34.811 20.7282C34.811 22.2868 33.5374 23.5604 31.9788 23.5604ZM21.6653 19.0271C20.7302 19.0271 19.9642 19.793 19.9642 20.7282C19.9642 21.6633 20.7302 22.4293 21.6653 22.4293H31.9788C32.914 22.4293 33.6799 21.6633 33.6799 20.7282C33.6799 19.793 32.914 19.0271 31.9788 19.0271H21.6653Z"
    fill="#121E51" />
  <path
    d="M31.4689 18.4571H22.999C21.7433 18.4571 20.719 17.4329 20.719 16.1771C20.719 14.9213 21.7433 13.8971 22.999 13.8971H31.4689C32.7247 13.8971 33.7489 14.9213 33.7489 16.1771C33.7489 17.4329 32.7247 18.4571 31.4689 18.4571Z"
    fill="#FFEDD8" />
  <path
    d="M31.4691 19.0271H22.9993C21.4318 19.0271 20.1582 17.7535 20.1582 16.186C20.1582 14.6185 21.4318 13.3449 22.9993 13.3449H31.4691C33.0367 13.3449 34.3103 14.6185 34.3103 16.186C34.3103 17.7535 33.0367 19.0271 31.4691 19.0271ZM22.9993 14.476C22.0552 14.476 21.2893 15.2419 21.2893 16.186C21.2893 17.1301 22.0552 17.896 22.9993 17.896H31.4691C32.4132 17.896 33.1791 17.1301 33.1791 16.186C33.1791 15.2419 32.4132 14.476 31.4691 14.476H22.9993Z"
    fill="#121E51" />
  <path
    d="M32.4236 29.7681C32.4236 30.9972 31.4261 31.9947 30.197 31.9947H24.6128C23.3837 31.9947 22.3862 30.9972 22.3862 29.7681C22.3862 28.5391 23.3837 27.5416 24.6128 27.5416H30.197C30.8116 27.5416 31.3638 27.791 31.7645 28.1917C32.1653 28.5925 32.4147 29.1536 32.4147 29.7592L32.4236 29.7681Z"
    fill="#FFEDD8" />
  <path
    d="M30.1972 32.5647H24.6129C23.0722 32.5647 21.8253 31.3089 21.8253 29.7681C21.8253 28.2274 23.0722 26.9805 24.6129 26.9805H30.1972C30.9453 26.9805 31.6489 27.2744 32.1655 27.7998C32.6909 28.3164 32.9849 29.02 32.9849 29.7681C32.9849 31.3089 31.7291 32.5647 30.1972 32.5647ZM24.6129 28.1116C23.6956 28.1116 22.9564 28.8508 22.9564 29.7681C22.9564 30.6855 23.6956 31.4247 24.6129 31.4247H30.1972C31.1145 31.4247 31.8537 30.6766 31.8537 29.7681C31.8537 29.3228 31.6845 28.9131 31.3728 28.6014C31.0611 28.2808 30.6425 28.1116 30.1972 28.1116H24.6129Z"
    fill="#121E51" />
  <path
    d="M24.6128 31.9946H17.1672C15.947 32.0214 14.7179 31.9501 13.765 31.7185C11.0842 31.0684 9.27621 30.9437 6.80918 30.8814C5.89183 30.8546 4.97449 30.9081 4.05714 31.0239H4.03043C3.23777 31.1218 2.47184 30.7478 2.06215 30.0353C1.39418 28.8685 0.610426 26.6954 0.699489 23.0617C0.797458 19.2231 1.88401 17.1212 2.68557 16.088C3.10416 15.5448 3.70979 15.233 4.35104 15.2241H4.36887C5.88293 15.0104 7.48605 15.8565 9.70372 14.8234C13.3553 11.1807 15.4304 11.4033 16.2409 9.37271L17.9064 2.80879C18.2804 1.17895 19.5897 0.315039 21.0948 0.680197C22.9028 1.1166 23.1789 2.3902 22.8583 3.9488L20.8188 12.8105C20.8188 12.8105 21.4956 13.2291 22.3328 13.9327H22.9206C22.3239 13.9505 21.7806 14.2088 21.3887 14.6007C20.979 15.0104 20.7208 15.5804 20.7208 16.2127C20.7208 17.4774 21.745 18.4927 23.0008 18.4927H21.6827C20.4269 18.4927 19.4027 19.4813 19.4027 20.746C19.4027 22.0107 20.4269 23.026 21.6827 23.026H23.0008C22.3684 23.026 21.8073 23.2843 21.3887 23.694C20.979 24.1126 20.7208 24.6737 20.7208 25.306C20.7208 26.5707 21.745 27.586 23.0008 27.586H24.6128C23.3837 27.586 22.3862 28.5835 22.3862 29.8126C22.3862 31.0417 23.3837 32.0392 24.6128 32.0392V31.9946Z"
    fill="#FFEDD8" />
  <path
    d="M16.7213 32.5735C15.4833 32.5735 14.4413 32.4756 13.6308 32.2707C11.0836 31.6562 9.39143 31.5137 6.7908 31.4424C5.94471 31.4157 5.04516 31.4603 4.12781 31.576C3.07687 31.7096 2.07937 31.202 1.57171 30.2935C0.868119 29.0556 0.0398484 26.7845 0.137817 23.0349C0.235786 19.0983 1.34015 16.8896 2.23968 15.7229C2.75625 15.0549 3.51328 14.6541 4.32375 14.6363C4.90266 14.5651 5.47268 14.6185 6.0694 14.6808C7.07581 14.7877 8.11784 14.8857 9.38253 14.3246C11.1905 12.5344 12.6333 11.6616 13.6932 11.0204C14.7352 10.388 15.3675 10.0051 15.706 9.16786L17.3625 2.63956C17.5852 1.67769 18.1196 0.893935 18.8588 0.439715C19.5446 0.0122139 20.3907 -0.103567 21.2368 0.0923709C23.1338 0.546591 23.8641 1.86472 23.4188 4.02004L21.4594 12.5166C21.7177 12.6947 22.1007 12.9708 22.5371 13.3271H22.92C23.2318 13.3271 23.4812 13.5765 23.4901 13.8882C23.4901 14.1999 23.2496 14.4493 22.9378 14.4671C22.5103 14.4849 22.1007 14.6541 21.789 14.9658C21.4683 15.2865 21.2902 15.714 21.2902 16.1682C21.2902 17.1123 22.0561 17.8782 23.0002 17.8782C23.3119 17.8782 23.5702 18.1276 23.5702 18.4393C23.5702 18.751 23.3208 19.0093 23.0091 19.0093H21.691C20.7291 19.0093 19.9721 19.7485 19.9721 20.6926C19.9721 21.6366 20.738 22.4026 21.6821 22.4026H23.0002C23.3119 22.4026 23.5702 22.652 23.5702 22.9726C23.5702 23.2932 23.3208 23.5426 23.0002 23.5426C22.546 23.5426 22.1185 23.7207 21.789 24.0502C21.4683 24.3709 21.2902 24.8073 21.2902 25.2615C21.2902 26.2056 22.0561 26.9715 23.0002 26.9715H24.6122C24.924 26.9715 25.1822 27.2209 25.1822 27.5415C25.1822 27.8621 24.9329 28.1115 24.6122 28.1115C23.6949 28.1115 22.9557 28.8507 22.9557 29.7681C22.9557 30.6854 23.6949 31.4246 24.6122 31.4246C24.924 31.4246 25.1822 31.674 25.1822 31.9946C25.1822 32.3153 24.9329 32.5646 24.6122 32.5646H17.1666C17.0152 32.5646 16.8638 32.5646 16.7213 32.5646V32.5735ZM6.33657 30.3024C6.49689 30.3024 6.65721 30.3024 6.81752 30.3024C9.44487 30.3737 11.2528 30.5251 13.898 31.1574C14.7085 31.3534 15.8307 31.4514 17.1577 31.4246H22.3768C22.0294 30.9615 21.8246 30.3826 21.8246 29.7592C21.8246 29.1357 22.0472 28.5123 22.4213 28.0403C21.1299 27.7731 20.1591 26.6242 20.1591 25.2526C20.1591 24.5757 20.3996 23.9256 20.836 23.409C19.6782 23.0438 18.841 21.9662 18.841 20.6926C18.841 19.419 19.6871 18.368 20.8449 18.0029C20.4174 17.5041 20.168 16.8629 20.168 16.1593C20.168 15.4023 20.4619 14.6897 21.0052 14.1465C21.121 14.0307 21.2457 13.9238 21.3793 13.8347C20.8805 13.4607 20.5421 13.2469 20.5332 13.238C20.3283 13.1133 20.2304 12.864 20.2838 12.6324L22.3233 3.77067C22.6351 2.23879 22.2521 1.49066 20.9785 1.18785C20.4174 1.05425 19.8919 1.1255 19.4644 1.39269C18.9835 1.68659 18.6361 2.22097 18.4758 2.89785L16.8014 9.47958C16.8014 9.47958 16.7836 9.52411 16.7747 9.55083C16.2938 10.7621 15.4032 11.2965 14.281 11.9822C13.2033 12.6324 11.8585 13.4518 10.1128 15.1885C10.0683 15.233 10.0149 15.2687 9.95252 15.3043C8.3672 16.0435 7.03125 15.9099 5.9625 15.7941C5.42812 15.7407 4.92046 15.6873 4.45734 15.7496C4.43062 15.7496 4.4039 15.7496 4.37718 15.7496C3.90515 15.7496 3.45986 15.9901 3.14814 16.3998C2.34658 17.4329 1.37579 19.419 1.27782 23.0438C1.18876 26.5351 1.92798 28.6013 2.56032 29.7235C2.84532 30.2401 3.3886 30.5073 3.9675 30.436C4.79579 30.3292 5.58846 30.2846 6.34549 30.2846L6.33657 30.3024Z"
    fill="#121E51" />
</svg>