<svg width="24" height="40" viewBox="0 0 24 40" fill="none" xmlns="http://www.w3.org/2000/svg">
  <path
    d="M21.7753 12.6146C20.3763 12.1457 18.8773 14.2981 18.5007 14.8592L16.6865 18.303L16.871 4.70464C16.871 4.14349 16.6634 3.63615 16.3098 3.26717C15.9562 2.8982 15.4643 2.66759 14.9185 2.6599C13.85 2.65222 12.9814 3.51316 12.9353 4.58934L12.966 2.47541C12.9814 1.39154 12.1127 0.492153 11.0212 0.476779C9.9296 0.461405 9.03792 1.33005 9.02255 2.42161L8.99951 3.98207C9.01488 2.8982 8.14623 1.99882 7.05467 1.98344C5.9708 1.96807 5.10986 2.85207 5.09448 3.93594L5.01759 9.86265C4.96378 8.84027 4.13359 8.01776 3.10352 8.00239C2.02734 7.98701 1.18176 8.87102 1.17407 9.95489L1.06649 18.0724L0.966554 25.5826C0.958867 26.5819 1.11258 27.5197 1.32013 28.3192C1.89665 30.5484 2.21182 32.0782 2.28101 34.1152C2.31175 34.8686 2.27332 35.6219 2.18107 36.3752V36.3983C2.09651 37.0517 2.4271 37.6974 3.04206 38.051C4.04906 38.6352 5.90928 39.3424 9.00716 39.3731C12.2895 39.4039 14.0806 38.5737 14.957 37.9434C15.4182 37.6205 15.6872 37.1208 15.6872 36.5981C15.8563 35.3528 15.9947 32.7469 17.8549 30.8559C19.8305 28.765 19.646 23.2842 20.0842 21.6469L22.913 15.3666C23.3281 14.4057 23.2897 13.1066 21.7753 12.5992V12.6146Z"
    fill="#FFEDD8" />
  <path
    d="M17.3558 4.72003L17.202 16.289L18.0707 14.6363C18.0707 14.6363 18.086 14.6055 18.0937 14.5902C18.8547 13.4525 20.3614 11.623 21.9295 12.1534C22.8443 12.4609 23.2517 13.0066 23.4362 13.4141C23.713 14.0367 23.6899 14.8285 23.3671 15.5741L20.5536 21.8237C20.446 22.2618 20.3691 23.0152 20.2846 23.8915C20.0539 26.2975 19.7388 29.5876 18.2167 31.2095C16.6486 32.8084 16.3872 34.9762 16.2335 36.2676C16.2181 36.406 16.2027 36.529 16.1874 36.6443C16.172 37.3284 15.8337 37.9511 15.2495 38.3585C14.2579 39.0657 12.3746 39.9113 9.01534 39.8805H8.93849C5.78681 39.8344 3.86503 39.1041 2.81191 38.4892C2.03552 38.0433 1.60504 37.2131 1.70497 36.3598C1.70497 36.3522 1.70497 36.3214 1.70497 36.3137C1.78953 35.5988 1.82796 34.8609 1.79721 34.1537C1.72803 32.1704 1.42056 30.6791 0.851723 28.4653C0.598051 27.4967 0.475074 26.5281 0.482761 25.6057L0.690326 9.97027C0.7057 8.60967 1.79724 7.51811 3.11941 7.53349C3.6575 7.53349 4.15715 7.72566 4.55688 8.03314L4.61069 3.94365C4.62607 2.58304 5.733 1.4838 7.06286 1.50686C7.6317 1.50686 8.15442 1.71441 8.56184 2.04495C8.7617 0.868835 9.79172 -0.0151766 11.0216 0.000197483C12.3746 0.0155715 13.4661 1.13788 13.4431 2.4908V2.65991C13.8505 2.35243 14.3655 2.17563 14.919 2.17563C15.5647 2.17563 16.1873 2.45236 16.6563 2.92895C16.6563 2.92895 17.3712 3.56698 17.3558 4.71235V4.72003ZM3.09632 8.51743C2.30456 8.50974 1.66654 9.15545 1.65885 9.99333L1.45133 25.6287C1.44365 26.4666 1.55895 27.343 1.78957 28.2346C2.38147 30.5254 2.6966 32.0628 2.76579 34.1306C2.79653 34.8839 2.76578 35.6757 2.66585 36.4675V36.5136C2.60435 36.9594 2.84265 37.4053 3.2885 37.659C4.24938 38.2124 6.00206 38.8812 8.94619 38.9196H9.02304C12.2823 38.9504 13.9658 38.0971 14.6807 37.5821C15.0112 37.3438 15.2034 36.9979 15.2111 36.6289C15.2111 36.6058 15.2111 36.5751 15.2111 36.5597C15.2265 36.4444 15.2418 36.3137 15.2572 36.1677C15.4263 34.7533 15.7184 32.378 17.5095 30.5485C18.7932 29.1802 19.0931 26.0823 19.3083 23.8146C19.4005 22.8307 19.4774 22.062 19.6158 21.5469C19.6158 21.5239 19.6311 21.5008 19.6388 21.4778L22.4676 15.1975C22.6829 14.7055 22.706 14.2058 22.5445 13.8292C22.3985 13.4986 22.0833 13.2449 21.6221 13.0912C20.815 12.8222 19.7003 13.9598 18.9239 15.1283L15.4725 21.6853C15.4033 21.8237 15.2726 21.9159 15.1188 21.939C14.9267 21.9697 10.376 22.8614 10.276 30.4485C10.276 30.7176 10.0531 30.9328 9.78405 30.9328C9.515 30.9328 9.29976 30.7099 9.29976 30.4408C9.39969 22.9306 13.6199 21.324 14.7115 21.0319L16.1951 18.2031L16.3718 4.72003C16.3718 4.31262 16.2258 3.92058 15.9414 3.62848C15.6646 3.34406 15.2957 3.18263 14.9113 3.17494C14.1119 3.17494 13.4585 3.80528 13.42 4.63547L13.2355 18.28C13.2355 18.549 13.0126 18.7642 12.7436 18.7642C12.4745 18.7642 12.2593 18.5413 12.2593 18.2723L12.4668 2.50616C12.4745 1.69134 11.8211 1.01488 11.0063 1.0072C10.1915 0.999509 9.51501 1.65291 9.50733 2.46774L9.29976 18.2338C9.29976 18.5029 9.07687 18.7181 8.80783 18.7181C8.53878 18.7181 8.32354 18.4952 8.32354 18.2261L8.51572 4.02051C8.5234 3.20569 7.86999 2.52923 7.05516 2.52154C6.24802 2.51385 5.60233 3.15956 5.58696 3.99745L5.51006 9.87803C5.51006 9.93953 5.51006 10.001 5.51006 10.0625L5.40243 18.1954C5.40243 18.4644 5.17954 18.6797 4.9105 18.6797C4.64145 18.6797 4.42621 18.4568 4.42621 18.1877L4.53384 9.90878C4.47234 9.15545 3.85735 8.56354 3.10402 8.54817L3.09632 8.51743Z"
    fill="#121E51" />
</svg>