<svg width="24" height="38" viewBox="0 0 24 38" fill="none" xmlns="http://www.w3.org/2000/svg">
  <path
    d="M21.6744 10.9621C20.2921 10.4989 18.8111 12.6254 18.4389 13.1799L17.0491 15.8229L17.2086 3.95207C17.2086 3.39764 17.0035 2.89637 16.6542 2.53181C16.3048 2.16726 15.8187 1.93942 15.2795 1.93182C14.2238 1.92423 13.3656 2.77485 13.32 3.83814L13.1377 17.6912L10.601 2.11409C10.4263 1.05081 9.43138 0.329297 8.3681 0.50398C7.30481 0.678662 6.5833 1.67359 6.75798 2.73688L9.84151 21.7773L1.23648 16.5672L1.12259 23.7899C1.11499 24.7773 1.26691 25.7038 1.47197 26.4937C2.04159 28.6962 2.35298 30.2076 2.42133 32.2203C2.45171 32.9646 2.41373 33.7088 2.32259 34.4531V34.4759C2.23905 35.1215 2.56563 35.7595 3.17322 36.1088C4.16815 36.6861 6.00612 37.3848 9.06686 37.4152C12.3099 37.4455 14.0795 36.6253 14.9453 36.0025C15.401 35.6835 15.6668 35.1899 15.6668 34.6734C15.8339 33.443 15.9706 30.8684 17.8085 29C19.7604 26.9342 19.5782 21.5191 20.0111 19.9013L22.806 13.6963C23.2161 12.7469 23.1782 11.4634 21.682 10.9621H21.6744Z"
    fill="#FFEDD8" />
  <path
    d="M8.98341 37.8936C5.86951 37.8557 3.9708 37.1266 2.9227 36.519C2.15562 36.0785 1.7303 35.2582 1.82904 34.4152C1.82904 34.4076 1.82904 34.3772 1.82904 34.3696C1.91258 33.6633 1.95055 32.9342 1.92017 32.243C1.85182 30.2836 1.54804 28.8102 0.986015 26.6228C0.735384 25.6659 0.613834 24.7089 0.621429 23.7975L0.735371 16.5748C0.735371 16.4001 0.834117 16.2406 0.986015 16.1571C1.13791 16.0735 1.3202 16.0735 1.4721 16.1646L9.18089 20.8355L6.26447 2.82043C6.15815 2.18246 6.31004 1.53689 6.68979 1.01284C7.06953 0.488795 7.63152 0.139435 8.26949 0.033107C8.90746 -0.0732215 9.55303 0.0786745 10.0771 0.458419C10.6011 0.838164 10.9505 1.40019 11.0568 2.03816L12.7049 12.1773L12.8188 3.83055C12.8796 2.47107 13.9505 1.43057 15.272 1.44576H15.2796C15.9252 1.45335 16.5252 1.71917 16.9809 2.19005C17.4366 2.66853 17.6796 3.29132 17.672 3.95207L17.5429 13.8102L17.9985 12.952C17.9985 12.952 18.0138 12.9216 18.0214 12.9064C18.7732 11.7824 20.2618 9.97482 21.8112 10.4989C22.715 10.8027 23.1175 11.3419 23.2998 11.7444C23.5732 12.3596 23.5504 13.1419 23.2314 13.8786L20.4517 20.0532C20.3454 20.4862 20.2694 21.2305 20.1859 22.0963C19.958 24.4735 19.6466 27.7241 18.1429 29.319C16.5935 30.8987 16.3353 33.0405 16.1834 34.3165C16.1682 34.4532 16.153 34.5747 16.1378 34.6886C16.1226 35.3645 15.7884 35.9797 15.2112 36.3823C14.2391 37.081 12.3708 37.9164 9.05179 37.886H8.97581L8.98341 37.8936ZM1.70754 17.4254L1.6012 23.8051C1.5936 24.633 1.70753 25.4988 1.93538 26.3798C2.52018 28.6431 2.83154 30.162 2.8999 32.2051C2.93028 32.9494 2.89994 33.7316 2.80121 34.5139V34.5595C2.74045 35 2.97589 35.4405 3.41639 35.6911C4.36575 36.238 6.09738 36.8987 9.00622 36.9367H9.08215C12.3024 36.9671 13.9657 36.124 14.672 35.6152C14.9986 35.3797 15.1884 35.038 15.196 34.6734C15.196 34.6506 15.196 34.6203 15.196 34.6051C15.2112 34.4911 15.2264 34.362 15.2416 34.2177C15.4087 32.8203 15.6973 30.4734 17.4669 28.6658C18.7353 27.314 19.0315 24.2532 19.2441 22.0127C19.3353 21.0406 19.4112 20.2811 19.5479 19.7722C19.5479 19.7494 19.5631 19.7267 19.5707 19.7039L22.3656 13.4988C22.5783 13.0128 22.6011 12.5191 22.4416 12.147C22.2973 11.8204 21.9859 11.5773 21.5302 11.4178C20.7327 11.152 19.6315 12.2761 18.8644 13.4305L15.4543 19.9089C15.3859 20.0456 15.2568 20.1368 15.1049 20.1596C14.915 20.19 10.4189 21.071 10.3201 28.5671C10.3201 28.8329 10.0999 29.0456 9.83404 29.0456C9.56822 29.0456 9.35555 28.8253 9.35555 28.5595C9.45429 21.1393 13.6239 19.552 14.7024 19.2634L16.5783 15.7014L16.7378 3.95207C16.7378 3.54954 16.5935 3.1622 16.3125 2.87359C16.0391 2.59258 15.6745 2.43309 15.2948 2.42549C14.5049 2.4179 13.8517 3.05587 13.8214 3.87612L13.6391 17.714C13.6391 17.9646 13.4416 18.1697 13.191 18.1925C12.9404 18.2153 12.7201 18.033 12.6821 17.79L10.1455 2.21284C10.0163 1.41537 9.25683 0.876139 8.46697 1.00525C8.07963 1.06601 7.74545 1.27867 7.5176 1.59006C7.28976 1.90905 7.19864 2.29638 7.2594 2.67613L10.3429 21.7165C10.3733 21.8988 10.2897 22.0887 10.1379 22.195C9.97836 22.3013 9.7809 22.3089 9.6214 22.2102L1.7379 17.433L1.70754 17.4254Z"
    fill="#333333" />
  <path
    d="M6.41753 12.8837C5.36184 13.0584 4.64034 14.0533 4.81502 15.1166L5.97706 22.2406C6.15175 23.2963 7.14668 24.0178 8.20996 23.8431C9.26565 23.6684 9.98716 22.6735 9.81247 21.6102L8.65043 14.4862C8.47575 13.4305 7.48082 12.709 6.41753 12.8837Z"
    fill="#FFEDD8" />
  <path
    d="M7.85256 24.352C7.35889 24.352 6.88041 24.1925 6.47028 23.8963C5.94623 23.5165 5.59689 22.9545 5.49056 22.3165L4.32852 15.1925C4.22219 14.5546 4.37408 13.909 4.75383 13.385C5.13357 12.8609 5.69561 12.5115 6.33358 12.4052C6.97155 12.2989 7.61712 12.4508 8.14117 12.8305C8.66522 13.2103 9.01456 13.7723 9.12089 14.4103L10.2829 21.5343C10.4956 22.8558 9.59938 24.1013 8.27787 24.3216C8.13357 24.3444 7.98926 24.3596 7.84496 24.352H7.85256ZM6.75129 13.3394C6.66775 13.3394 6.57663 13.3394 6.49309 13.3622C6.10575 13.4229 5.77157 13.6356 5.54373 13.9546C5.31588 14.2736 5.22472 14.6609 5.28548 15.0406L6.44752 22.1646C6.50828 22.552 6.72091 22.8862 7.0399 23.114C7.35888 23.3419 7.74622 23.433 8.12596 23.3722C8.92343 23.2431 9.46268 22.4912 9.33357 21.6938L8.17153 14.5698C8.11077 14.1824 7.89814 13.8482 7.57915 13.6204C7.33612 13.4457 7.04749 13.347 6.75129 13.347V13.3394Z"
    fill="#333333" />
  <path
    d="M4.18342 23.0607C3.15051 23.2278 2.17078 22.5291 2.00369 21.4962L1.2366 16.7949C1.06951 15.762 1.76828 14.7823 2.80119 14.6152C3.83409 14.4481 4.81383 15.1469 4.98092 16.1798L5.74797 20.881C5.91505 21.9139 5.21632 22.8936 4.18342 23.0607Z"
    fill="#FFEDD8" />
  <path
    d="M3.84225 23.5696C3.35618 23.5696 2.89287 23.4101 2.49034 23.1215C1.97388 22.7494 1.63211 22.2025 1.53337 21.5722L0.766282 16.8709C0.553625 15.5722 1.43465 14.3494 2.73338 14.1368C3.36376 14.0304 3.99415 14.1823 4.5106 14.5545C5.02706 14.9266 5.36879 15.4735 5.46752 16.1039L6.23461 20.8051C6.34094 21.4355 6.18905 22.0658 5.8169 22.5823C5.44475 23.0987 4.89794 23.4405 4.26756 23.5392C4.12326 23.562 3.98655 23.5696 3.84225 23.5696ZM3.13588 15.0785C3.05234 15.0785 2.96883 15.0785 2.88529 15.0937C2.1182 15.2228 1.59413 15.952 1.71564 16.719L2.48274 21.4203C2.54349 21.7924 2.74856 22.119 3.05235 22.3393C3.35615 22.5595 3.7359 22.6506 4.10805 22.5899C4.4802 22.5291 4.8068 22.3241 5.02705 22.0203C5.2473 21.7165 5.33841 21.3367 5.27765 20.9646L4.5106 16.2633C4.44985 15.8912 4.24478 15.5646 3.94099 15.3444C3.70555 15.1697 3.42449 15.0785 3.13588 15.0785Z"
    fill="#333333" />
</svg>