<svg width="36" height="36" viewBox="0 0 36 36" fill="none" xmlns="http://www.w3.org/2000/svg">
  <rect width="36" height="36" rx="10" fill="#203FEB" fill-opacity="0.05" />
  <rect x="0.5" y="0.5" width="35" height="35" rx="9.5" stroke="#203FEB" stroke-opacity="0.1" />
  <path
    d="M9.30615 17.888C14.4064 15.63 17.8074 14.1414 19.5091 13.4222C24.3677 11.3687 25.3773 11.012 26.0354 11.0001C26.1801 10.9976 26.5037 11.0341 26.7133 11.2069C26.8903 11.3529 26.939 11.55 26.9623 11.6884C26.9856 11.8267 27.0146 12.1419 26.9916 12.3882C26.7283 15.1993 25.589 22.021 25.0094 25.1694C24.7642 26.5017 24.2813 26.9484 23.8138 26.9921C22.7978 27.0871 22.0263 26.3098 21.0422 25.6543C19.5024 24.6287 18.6325 23.9902 17.1378 22.9894C15.4105 21.8327 16.5303 21.197 17.5147 20.158C17.7723 19.8861 22.2488 15.7488 22.3354 15.3734C22.3463 15.3265 22.3563 15.1515 22.254 15.0591C22.1517 14.9667 22.0007 14.9983 21.8918 15.0235C21.7373 15.0591 19.2775 16.7112 14.5121 19.9798C13.8139 20.467 13.1815 20.7044 12.6148 20.692C11.9901 20.6782 10.7885 20.3331 9.89523 20.038C8.79958 19.6761 7.92878 19.4848 8.0046 18.8701C8.0441 18.55 8.47795 18.2226 9.30615 17.888Z"
    fill="#203FEB" />
</svg>