<svg width="16" height="16" viewBox="0 0 16 16" fill="none" xmlns="http://www.w3.org/2000/svg">
  <g opacity="0.4">
    <path d="M6.66671 4.66671H8.00004V8.00004H11.3334V9.33337H6.66671V4.66671Z" fill="#1D4473" />
    <path fill-rule="evenodd" clip-rule="evenodd"
      d="M14.6667 8.00004C14.6667 11.6819 11.6819 14.6667 8.00004 14.6667C4.31814 14.6667 1.33337 11.6819 1.33337 8.00004C1.33337 4.31814 4.31814 1.33337 8.00004 1.33337C11.6819 1.33337 14.6667 4.31814 14.6667 8.00004ZM13.3334 8.00004C13.3334 10.9456 10.9456 13.3334 8.00004 13.3334C5.05452 13.3334 2.66671 10.9456 2.66671 8.00004C2.66671 5.05452 5.05452 2.66671 8.00004 2.66671C10.9456 2.66671 13.3334 5.05452 13.3334 8.00004Z"
      fill="#1D4473" />
    <path d="M6.66671 4.66671H8.00004V8.00004H11.3334V9.33337H6.66671V4.66671Z" stroke="white" stroke-width="0.4" />
    <path fill-rule="evenodd" clip-rule="evenodd"
      d="M14.6667 8.00004C14.6667 11.6819 11.6819 14.6667 8.00004 14.6667C4.31814 14.6667 1.33337 11.6819 1.33337 8.00004C1.33337 4.31814 4.31814 1.33337 8.00004 1.33337C11.6819 1.33337 14.6667 4.31814 14.6667 8.00004ZM13.3334 8.00004C13.3334 10.9456 10.9456 13.3334 8.00004 13.3334C5.05452 13.3334 2.66671 10.9456 2.66671 8.00004C2.66671 5.05452 5.05452 2.66671 8.00004 2.66671C10.9456 2.66671 13.3334 5.05452 13.3334 8.00004Z"
      stroke="white" stroke-width="0.4" />
  </g>
</svg>