<svg width="32" height="32" viewBox="0 0 32 32" fill="none" xmlns="http://www.w3.org/2000/svg">
<circle cx="16" cy="16" r="16" fill="white"/>
<g clip-path="url(#clip0_1_677)">
<path d="M15.9998 31.1111C24.3454 31.1111 31.1109 24.3457 31.1109 16C31.1109 7.65439 24.3454 0.888916 15.9998 0.888916C7.65415 0.888916 0.888672 7.65439 0.888672 16C0.888672 24.3457 7.65415 31.1111 15.9998 31.1111Z" fill="#F0F0F0"/>
<path d="M4.01236 6.80005C2.82537 8.34439 1.93034 10.1244 1.40918 12.0581H9.27038L4.01236 6.80005Z" fill="#0052B4"/>
<path d="M30.5901 12.058C30.0689 10.1244 29.1738 8.34439 27.9869 6.80005L22.729 12.058H30.5901Z" fill="#0052B4"/>
<path d="M1.40918 19.9421C1.9304 21.8758 2.82543 23.6558 4.01236 25.2L9.2702 19.9421H1.40918Z" fill="#0052B4"/>
<path d="M25.1999 4.01267C23.6555 2.82568 21.8756 1.93064 19.9419 1.40942V9.27057L25.1999 4.01267Z" fill="#0052B4"/>
<path d="M6.7998 27.9873C8.34415 29.1743 10.1241 30.0694 12.0578 30.5906V22.7295L6.7998 27.9873Z" fill="#0052B4"/>
<path d="M12.0577 1.40942C10.1241 1.93064 8.34409 2.82568 6.7998 4.01261L12.0577 9.27051V1.40942Z" fill="#0052B4"/>
<path d="M19.9419 30.5906C21.8755 30.0694 23.6555 29.1743 25.1998 27.9874L19.9419 22.7295V30.5906Z" fill="#0052B4"/>
<path d="M22.729 19.9421L27.9869 25.2001C29.1738 23.6558 30.0689 21.8758 30.5901 19.9421H22.729Z" fill="#0052B4"/>
<path d="M30.983 14.029H17.9709H17.9708V1.01683C17.3256 0.932833 16.6678 0.888916 15.9998 0.888916C15.3316 0.888916 14.674 0.932833 14.0288 1.01683V14.0289V14.029H1.01659C0.932589 14.6742 0.888672 15.332 0.888672 16C0.888672 16.6682 0.932589 17.3258 1.01659 17.971H14.0287H14.0287V30.9832C14.674 31.0672 15.3316 31.1111 15.9998 31.1111C16.6678 31.1111 17.3256 31.0673 17.9708 30.9832V17.9711V17.9711H30.983C31.067 17.3258 31.1109 16.6682 31.1109 16C31.1109 15.332 31.067 14.6742 30.983 14.029Z" fill="#D80027"/>
<path d="M19.9419 19.9422L26.685 26.6853C26.9951 26.3753 27.291 26.0512 27.5732 25.7152L21.8002 19.9421H19.9419V19.9422Z" fill="#D80027"/>
<path d="M12.0576 19.9421H12.0575L5.31445 26.6852C5.62447 26.9953 5.94859 27.2912 6.28457 27.5734L12.0576 21.8003V19.9421Z" fill="#D80027"/>
<path d="M12.0576 12.058V12.0579L5.31452 5.3147C5.00439 5.62471 4.70854 5.94883 4.42627 6.28482L10.1994 12.0579H12.0576V12.058Z" fill="#D80027"/>
<path d="M19.9419 12.0582L26.685 5.31495C26.375 5.00482 26.0509 4.70897 25.7149 4.42676L19.9419 10.1999V12.0582Z" fill="#D80027"/>
</g>
<defs>
<clipPath id="clip0_1_677">
<rect width="30.2222" height="30.2222" fill="white" transform="translate(0.888672 0.888916)"/>
</clipPath>
</defs>
</svg>
