<svg width="23" height="35" viewBox="0 0 23 35" fill="none" xmlns="http://www.w3.org/2000/svg">
  <path
    d="M18.7054 14.6741V12.6309C18.7054 12.1521 18.8403 11.7273 19.1167 11.4104C19.3865 11.1002 19.7978 10.9114 20.3507 10.9114C21.4499 10.9114 22.104 11.6733 22.104 12.6309V22.1254C22.104 22.9818 21.9624 23.7775 21.7736 24.4586C21.2476 26.3602 20.9644 27.6616 20.8835 29.4081C20.8498 30.0487 20.8835 30.7028 20.9509 31.3367V31.3569C21.0183 31.9166 20.7284 32.4628 20.1822 32.7595C19.2988 33.245 17.6534 33.8452 14.9359 33.8452C12.0565 33.8452 10.4921 33.1169 9.73011 32.5707C9.33226 32.2875 9.09624 31.8627 9.09624 31.4109C9.02881 30.5679 8.96812 30.1836 8.84 29.7655C8.39494 28.2887 8.5433 28.2618 7.24185 26.4815C6.25059 25.1261 5.85949 22.1524 5.10424 20.9116L1.24035 16.3801C0.66717 15.6856 0.485103 14.7213 1.55728 13.8379C2.54854 13.022 3.49933 13.6289 3.95113 14.0065L8.33425 18.1941V4.31643C8.33425 3.83766 8.52981 3.40609 8.84 3.0959C9.15693 2.78571 9.58852 2.59016 10.0605 2.59016C10.9979 2.59016 11.7531 3.33192 11.7868 4.25575V14.6606V4.3097C11.7868 4.3097 11.7868 4.26925 11.7868 4.24902V2.16535C11.7868 1.20781 12.5623 0.439056 13.5131 0.439056C13.9919 0.439056 14.4234 0.634611 14.7336 0.944801C15.0438 1.26173 15.2394 1.69332 15.2394 2.16535V14.6606V11.4508C15.2394 10.4933 16.0148 9.72454 16.9656 9.72454C17.4444 9.72454 17.876 9.9201 18.1862 10.2303C18.4964 10.5472 18.6919 10.9788 18.6919 11.4508V14.6606L18.7054 14.6741Z"
    fill="#FFEDD8" />
  <path
    d="M14.9288 34.27C11.982 34.27 10.3366 33.535 9.4735 32.9214C8.96101 32.5573 8.66432 32.011 8.66432 31.4176C8.60363 30.6624 8.54968 30.2847 8.4283 29.8936C8.35413 29.6576 8.30017 29.4553 8.25297 29.28C8.00347 28.3899 7.94279 28.1741 6.89759 26.7378C6.31092 25.9286 5.94003 24.6676 5.57589 23.4538C5.30616 22.5435 5.05666 21.6803 4.75321 21.1679L0.916297 16.6634C0.235228 15.8407 -0.0210104 14.5932 1.28044 13.5143C2.15706 12.786 3.22924 12.8534 4.22724 13.6896L7.90908 17.2028V4.32994C7.90908 3.75677 8.1316 3.2173 8.5362 2.80596C8.94753 2.39462 9.49373 2.17209 10.0669 2.17209C10.5524 2.17209 11.0042 2.33394 11.3616 2.60367V2.18559C11.3616 0.998778 12.3326 0.0277405 13.5195 0.0277405C14.0926 0.0277405 14.6321 0.250263 15.0434 0.654859C15.4548 1.0662 15.6773 1.60567 15.6773 2.17884V9.74478C16.0414 9.46831 16.4932 9.30648 16.9788 9.30648C17.5519 9.30648 18.0914 9.529 18.5027 9.93359C18.7725 10.2033 18.9613 10.5337 19.0557 10.8844C19.3996 10.6214 19.8379 10.4865 20.3437 10.4865C21.6114 10.4865 22.5285 11.3901 22.5285 12.6309V22.1254C22.5285 22.9211 22.4138 23.7438 22.1846 24.5732C21.6653 26.4613 21.3889 27.7358 21.3079 29.4283C21.281 30.0352 21.3012 30.6556 21.3754 31.2895C21.463 32.0447 21.0719 32.7595 20.3841 33.1371C19.4468 33.6564 17.734 34.27 14.9288 34.27ZM2.59538 13.8582C2.20427 13.8582 1.94128 14.074 1.82664 14.1684C0.916301 14.9236 1.18603 15.6384 1.57039 16.1037L5.42754 20.6284C5.42754 20.6284 5.45451 20.6621 5.468 20.6824C5.83888 21.2892 6.10861 22.2198 6.39857 23.1976C6.73574 24.3439 7.08639 25.5308 7.58539 26.2186C8.6778 27.7223 8.79243 28.019 9.07565 29.0305C9.12285 29.1991 9.1768 29.3947 9.25098 29.6307C9.39259 30.0892 9.45327 30.5073 9.52071 31.3569C9.52071 31.3704 9.52071 31.3772 9.52071 31.3907C9.52071 31.7076 9.68255 32.0043 9.97251 32.2066C10.5996 32.6516 12.0697 33.4001 14.9288 33.4001C17.5519 33.4001 19.1164 32.8405 19.966 32.3684C20.3571 32.1594 20.5662 31.7818 20.519 31.3907C20.438 30.6961 20.4111 30.0218 20.4448 29.3744C20.5257 27.6077 20.8157 26.286 21.3484 24.3372C21.5574 23.5819 21.6653 22.8335 21.6653 22.1187V12.6241C21.6653 11.8419 21.1461 11.3362 20.3369 11.3362C19.9391 11.3362 19.6356 11.4576 19.4266 11.6936C19.231 11.9161 19.1231 12.2398 19.1231 12.6309V14.6741C19.1231 14.9101 18.9343 15.1057 18.6915 15.1057C18.4488 15.1057 18.26 14.9169 18.26 14.6741V11.4643C18.26 11.1204 18.1251 10.79 17.8756 10.5405C17.6329 10.2977 17.3024 10.1629 16.9585 10.1629C16.2437 10.1629 15.6571 10.7428 15.6571 11.4643V14.6741C15.6571 14.9101 15.4683 15.1057 15.2255 15.1057C14.9827 15.1057 14.7939 14.9169 14.7939 14.6741V2.17884C14.7939 1.83494 14.6591 1.50452 14.4096 1.25502C14.1668 1.01226 13.8364 0.877398 13.4925 0.877398C12.7777 0.877398 12.191 1.45731 12.191 2.17884V4.24228C12.191 4.24228 12.191 4.29622 12.191 4.32319V14.6741C12.191 14.9101 12.0022 15.1057 11.7595 15.1057C11.5167 15.1057 11.3279 14.9169 11.3279 14.6741V4.26926C11.3009 3.58145 10.7345 3.0285 10.0332 3.0285C9.68929 3.0285 9.35888 3.16335 9.10938 3.41285C8.86662 3.65561 8.73176 3.98604 8.73176 4.32994V18.2008C8.73176 18.3694 8.6306 18.5245 8.46876 18.592C8.31366 18.6594 8.13159 18.6256 8.00347 18.511L3.62035 14.3235C3.20227 13.9728 2.85162 13.8582 2.56165 13.8582H2.59538Z"
    fill="#333333" />
</svg>