<svg width="17" height="17" viewBox="0 0 17 17" fill="none" xmlns="http://www.w3.org/2000/svg">
  <g clip-path="url(#clip0_11_655)">
    <path
      d="M8.45755 1.70762C10.6213 1.70762 10.8753 1.71725 11.7305 1.75578C12.5214 1.7911 12.949 1.92273 13.2351 2.0351C13.6145 2.18279 13.8845 2.35616 14.1674 2.6387C14.4504 2.92123 14.6272 3.19092 14.7719 3.56978C14.8812 3.85552 15.0162 4.28253 15.0516 5.07235C15.0902 5.92637 15.0998 6.18001 15.0998 8.34075C15.0998 10.5015 15.0902 10.7551 15.0516 11.6092C15.0162 12.399 14.8844 12.826 14.7719 13.1117C14.624 13.4906 14.4504 13.7603 14.1674 14.0428C13.8845 14.3253 13.6145 14.5019 13.2351 14.6464C12.949 14.7556 12.5214 14.8904 11.7305 14.9257C10.8753 14.9643 10.6213 14.9739 8.45755 14.9739C6.29384 14.9739 6.03985 14.9643 5.18465 14.9257C4.39375 14.8904 3.96615 14.7588 3.68001 14.6464C3.30064 14.4987 3.03058 14.3253 2.74766 14.0428C2.46473 13.7603 2.28791 13.4906 2.14323 13.1117C2.03392 12.826 1.89889 12.399 1.86352 11.6092C1.82494 10.7551 1.8153 10.5015 1.8153 8.34075C1.8153 6.18001 1.82494 5.92637 1.86352 5.07235C1.89889 4.28253 2.0307 3.85552 2.14323 3.56978C2.29112 3.19092 2.46473 2.92123 2.74766 2.6387C3.03058 2.35616 3.30064 2.17958 3.68001 2.0351C3.96615 1.92594 4.39375 1.7911 5.18465 1.75578C6.03985 1.71404 6.29384 1.70762 8.45755 1.70762ZM8.45755 0.25C6.25847 0.25 5.98198 0.259632 5.11713 0.298159C4.25551 0.336687 3.66715 0.474743 3.15275 0.673801C2.61905 0.879281 2.16895 1.1586 1.71885 1.60809C1.26874 2.05758 0.992248 2.51027 0.783271 3.04003C0.583939 3.55372 0.445693 4.14127 0.407112 5.00492C0.368532 5.86537 0.358887 6.14148 0.358887 8.33754C0.358887 10.5336 0.368532 10.8097 0.407112 11.6734C0.445693 12.5338 0.583939 13.1214 0.783271 13.6383C0.989033 14.1712 1.26874 14.6207 1.71885 15.0702C2.16895 15.5197 2.62227 15.7958 3.15275 16.0045C3.66715 16.2036 4.2555 16.3416 5.12035 16.3801C5.98519 16.4187 6.25847 16.4283 8.46077 16.4283C10.6631 16.4283 10.9363 16.4187 11.8012 16.3801C12.6628 16.3416 13.2512 16.2036 13.7688 16.0045C14.3025 15.799 14.7526 15.5197 15.2027 15.0702C15.6528 14.6207 15.9293 14.168 16.1383 13.6383C16.3376 13.1246 16.4758 12.537 16.5144 11.6734C16.553 10.8097 16.5626 10.5368 16.5626 8.33754C16.5626 6.13827 16.553 5.86537 16.5144 5.00171C16.4758 4.14127 16.3376 3.55372 16.1383 3.03682C15.9325 2.50385 15.6528 2.05437 15.2027 1.60488C14.7526 1.15539 14.2993 0.879281 13.7688 0.670591C13.2544 0.471533 12.666 0.333476 11.8012 0.294949C10.9331 0.259632 10.6566 0.25 8.45755 0.25Z"
      fill="#172863" />
    <path
      d="M8.45725 4.18353C6.16172 4.18353 4.297 6.04248 4.297 8.33807C4.297 10.6337 6.16172 12.4926 8.45725 12.4926C10.7528 12.4926 12.6175 10.6305 12.6175 8.33807C12.6175 6.04569 10.7528 4.18353 8.45725 4.18353ZM8.45725 11.035C6.96548 11.035 5.75662 9.8278 5.75662 8.33807C5.75662 6.84834 6.96548 5.64115 8.45725 5.64115C9.94903 5.64115 11.1579 6.84834 11.1579 8.33807C11.1579 9.8278 9.94903 11.035 8.45725 11.035Z"
      fill="#172863" />
    <path
      d="M12.7836 4.99024C13.3198 4.99024 13.7545 4.55613 13.7545 4.02063C13.7545 3.48513 13.3198 3.05103 12.7836 3.05103C12.2473 3.05103 11.8126 3.48513 11.8126 4.02063C11.8126 4.55613 12.2473 4.99024 12.7836 4.99024Z"
      fill="#172863" />
  </g>
  <defs>
    <clipPath id="clip0_11_655">
      <rect width="16.461" height="16.4384" fill="white" transform="translate(0.225952 0.117188)" />
    </clipPath>
  </defs>
</svg>