<svg width="38" height="38" viewBox="0 0 38 38" fill="none" xmlns="http://www.w3.org/2000/svg">
  <rect x="1" y="1" width="36" height="36" rx="10" fill="#203FEB" fill-opacity="0.05" stroke="#203FEB"
    stroke-opacity="0.1" />
  <path
    d="M15.6675 19C15.6675 17.1591 17.1594 15.6664 19.0004 15.6664C20.8414 15.6664 22.3341 17.1591 22.3341 19C22.3341 20.8409 20.8414 22.3336 19.0004 22.3336C17.1594 22.3336 15.6675 20.8409 15.6675 19ZM13.8653 19C13.8653 21.836 16.1643 24.1349 19.0004 24.1349C21.8365 24.1349 24.1355 21.836 24.1355 19C24.1355 16.164 21.8365 13.8651 19.0004 13.8651C16.1643 13.8651 13.8653 16.164 13.8653 19ZM23.1387 13.6615C23.1386 13.8989 23.2089 14.1309 23.3407 14.3283C23.4725 14.5257 23.6598 14.6796 23.8791 14.7705C24.0983 14.8614 24.3396 14.8852 24.5724 14.839C24.8052 14.7928 25.0191 14.6786 25.187 14.5109C25.3549 14.3431 25.4693 14.1293 25.5157 13.8966C25.5621 13.6638 25.5384 13.4225 25.4477 13.2032C25.3569 12.9839 25.2032 12.7964 25.0059 12.6645C24.8086 12.5326 24.5766 12.4621 24.3393 12.462H24.3388C24.0206 12.4621 23.7156 12.5886 23.4905 12.8135C23.2655 13.0384 23.139 13.3434 23.1387 13.6615ZM14.9602 27.1398C13.9852 27.0954 13.4553 26.933 13.1031 26.7958C12.6362 26.614 12.3031 26.3975 11.9528 26.0478C11.6026 25.698 11.3858 25.3652 11.2048 24.8983C11.0675 24.5463 10.9051 24.0162 10.8608 23.0413C10.8123 21.9872 10.8026 21.6706 10.8026 19.0001C10.8026 16.3296 10.8131 16.0138 10.8608 14.9589C10.9052 13.9839 11.0688 13.4549 11.2048 13.1018C11.3866 12.635 11.6031 12.3018 11.9528 11.9516C12.3026 11.6014 12.6354 11.3846 13.1031 11.2036C13.4551 11.0663 13.9852 10.9039 14.9602 10.8596C16.0144 10.8111 16.331 10.8014 19.0004 10.8014C21.6698 10.8014 21.9868 10.8119 23.0418 10.8596C24.0168 10.904 24.5458 11.0676 24.8989 11.2036C25.3658 11.3846 25.6989 11.6018 26.0492 11.9516C26.3994 12.3014 26.6154 12.635 26.7972 13.1018C26.9345 13.4538 27.0969 13.9839 27.1412 14.9589C27.1897 16.0138 27.1994 16.3296 27.1994 19.0001C27.1994 21.6706 27.1897 21.9863 27.1412 23.0413C27.0968 24.0162 26.9336 24.5462 26.7972 24.8983C26.6154 25.3652 26.3989 25.6983 26.0492 26.0478C25.6994 26.3972 25.3658 26.614 24.8989 26.7958C24.5469 26.933 24.0168 27.0954 23.0418 27.1398C21.9876 27.1882 21.671 27.1979 19.0004 27.1979C16.3298 27.1979 16.014 27.1882 14.9602 27.1398ZM14.8774 9.06056C13.8128 9.10904 13.0854 9.27784 12.4501 9.52504C11.7921 9.78032 11.2351 10.1228 10.6785 10.6785C10.122 11.2342 9.78035 11.792 9.52506 12.4499C9.27785 13.0856 9.10904 13.8126 9.06056 14.8772C9.01128 15.9434 9 16.2843 9 19C9 21.7157 9.01128 22.0566 9.06056 23.1228C9.10904 24.1874 9.27785 24.9144 9.52506 25.5501C9.78035 26.2076 10.122 26.7661 10.6785 27.3215C11.235 27.877 11.7921 28.219 12.4501 28.475C13.0866 28.7222 13.8128 28.891 14.8774 28.9394C15.9443 28.9879 16.2846 29 19.0004 29C21.7162 29 22.0571 28.9887 23.1234 28.9394C24.188 28.891 24.915 28.7222 25.5507 28.475C26.2083 28.219 26.7657 27.8772 27.3223 27.3215C27.8788 26.7658 28.2197 26.2076 28.4757 25.5501C28.723 24.9144 28.8926 24.1874 28.9402 23.1228C28.9887 22.0558 29 21.7157 29 19C29 16.2843 28.9887 15.9434 28.9402 14.8772C28.8918 13.8126 28.723 13.0852 28.4757 12.4499C28.2197 11.7924 27.878 11.235 27.3223 10.6785C26.7666 10.1219 26.2083 9.78032 25.5515 9.52504C24.915 9.27784 24.188 9.10824 23.1242 9.06056C22.0579 9.01208 21.717 9 19.0012 9C16.2854 9 15.9443 9.01128 14.8774 9.06056Z"
    fill="#203FEB" />
</svg>