<svg width="189" height="63" viewBox="0 0 189 63" fill="none" xmlns="http://www.w3.org/2000/svg">
  <path
    d="M101.75 13.1023C102.252 13.3506 103 13.8614 103.311 14.0858C107.133 16.5603 115.004 21.5635 115.965 22.1846C117.439 23.1373 117.679 23.4282 118.423 24.5664C118.913 25.3159 119.048 29.8584 119.164 32.026L93.4585 15.6088L98.0848 12.9379C99.7528 11.9748 101.122 12.7919 101.75 13.1023Z"
    fill="url(#paint0_linear_17_1136)" />
  <path
    d="M111.898 49.8608C111.396 49.6123 110.648 49.1016 110.337 48.8772C106.515 46.4029 98.6437 41.3996 97.6827 40.7786C96.2088 39.8257 95.969 39.5348 95.2249 38.3967C94.7347 37.6472 94.5995 33.1046 94.4832 30.937L120.189 47.3543L115.563 50.0252C113.895 50.9883 112.526 50.1712 111.898 49.8608Z"
    fill="url(#paint1_linear_17_1136)" />
  <g filter="url(#filter0_i_17_1136)">
    <path
      d="M111.323 23.3644C109.281 18.5085 105.228 15.3795 103.32 14.0891C107.054 16.4746 114.883 21.4799 116.323 22.417C118.125 23.5883 118.529 24.5575 118.704 25.4652C118.879 26.3729 119.216 32.735 119.308 33.7681C119.4 34.8012 119.191 35.5815 118.58 35.9341L112.964 39.1763C112.497 34.1017 112.331 25.7612 111.323 23.3644Z"
      fill="url(#paint2_radial_17_1136)" />
  </g>
  <path
    d="M111.447 23.312C110.074 20.0454 107.799 17.5568 105.868 15.8781C109.834 18.4128 115.095 21.7793 116.25 22.5303C117.141 23.1094 117.677 23.6331 118.013 24.117C118.347 24.5991 118.486 25.049 118.571 25.4908C118.613 25.7084 118.667 26.2673 118.724 27.0107C118.782 27.7499 118.843 28.6618 118.902 29.5783C118.943 30.2093 118.982 30.843 119.018 31.4237C119.086 32.5275 119.143 33.4402 119.173 33.7801C119.264 34.802 119.051 35.5063 118.512 35.817L113.08 38.9535C112.951 37.5085 112.845 35.82 112.736 34.0854C112.656 32.8075 112.575 31.5047 112.481 30.2561C112.368 28.7457 112.238 27.3166 112.073 26.1141C111.908 24.9155 111.707 23.9291 111.447 23.312Z"
    stroke="url(#paint3_linear_17_1136)" stroke-width="0.429185" />
  <g filter="url(#filter1_i_17_1136)">
    <path
      d="M102.325 39.5986C104.367 44.4544 108.419 47.5836 110.327 48.8739C106.593 46.4886 98.7651 41.4832 97.3239 40.546C95.5226 39.3747 95.1184 38.4056 94.9434 37.4979C94.7685 36.5903 94.4319 30.2281 94.3397 29.195C94.2474 28.1619 94.4567 27.3817 95.0675 27.0289L100.683 23.7867C101.15 28.8614 101.317 37.2019 102.325 39.5986Z"
      fill="url(#paint4_radial_17_1136)" />
  </g>
  <path
    d="M102.2 39.6511C103.574 42.9176 105.849 45.4063 107.779 47.0851C103.814 44.5505 98.5528 41.1839 97.3978 40.4328C96.5071 39.8536 95.9704 39.3299 95.6348 38.8462C95.3006 38.3641 95.1614 37.9141 95.0762 37.4723C95.0343 37.2547 94.9808 36.6958 94.9229 35.9525C94.8656 35.2133 94.8042 34.3012 94.7455 33.3849C94.705 32.7539 94.6658 32.1202 94.6295 31.5394C94.5611 30.4356 94.5046 29.523 94.4743 29.1831C94.3832 28.1613 94.5971 27.4568 95.1352 27.1461L100.568 24.0096C100.696 25.4547 100.802 27.1433 100.911 28.8777C100.991 30.1557 101.073 31.4585 101.166 32.7071C101.279 34.2174 101.41 35.6467 101.575 36.8491C101.74 38.0477 101.941 39.0341 102.2 39.6511Z"
    stroke="url(#paint5_linear_17_1136)" stroke-width="0.429185" />
  <g filter="url(#filter2_ii_17_1136)">
    <path
      d="M128.68 26.022C129.026 25.4913 129.459 25.076 129.978 24.776C130.497 24.4646 131.074 24.3088 131.708 24.3088V27.441H130.895C130.157 27.441 129.603 27.6025 129.234 27.9255C128.865 28.237 128.68 28.7907 128.68 29.5868V34.0687H125.721V24.4126H128.68V26.022ZM138.505 31.5595V34.0687H136.999C135.926 34.0687 135.09 33.8091 134.49 33.29C133.89 32.7593 133.59 31.8998 133.59 30.7116V26.8699H132.413V24.4126H133.59V22.0592H136.549V24.4126H138.487V26.8699H136.549V30.7462C136.549 31.0346 136.618 31.2422 136.757 31.3691C136.895 31.496 137.126 31.5595 137.449 31.5595H138.505ZM149.255 29.0849C149.255 29.3618 149.238 29.6502 149.203 29.9502H142.506C142.552 30.55 142.743 31.0115 143.077 31.3345C143.423 31.646 143.844 31.8018 144.341 31.8018C145.079 31.8018 145.592 31.4903 145.881 30.8673H149.03C148.869 31.5018 148.575 32.0729 148.148 32.5805C147.732 33.0881 147.207 33.4861 146.573 33.7745C145.938 34.0629 145.229 34.2072 144.444 34.2072C143.498 34.2072 142.656 34.0052 141.918 33.6015C141.179 33.1977 140.603 32.6208 140.187 31.871C139.772 31.1211 139.564 30.2443 139.564 29.2407C139.564 28.237 139.766 27.3602 140.17 26.6103C140.585 25.8605 141.162 25.2836 141.901 24.8799C142.639 24.4761 143.487 24.2742 144.444 24.2742C145.379 24.2742 146.209 24.4703 146.936 24.8626C147.663 25.2548 148.228 25.8143 148.632 26.5411C149.047 27.2679 149.255 28.1159 149.255 29.0849ZM146.227 28.3062C146.227 27.7986 146.054 27.3948 145.708 27.0949C145.362 26.7949 144.929 26.645 144.41 26.645C143.914 26.645 143.493 26.7892 143.147 27.0776C142.812 27.366 142.604 27.7755 142.524 28.3062H146.227ZM150.228 29.2407C150.228 28.237 150.43 27.3602 150.834 26.6103C151.249 25.8605 151.82 25.2836 152.547 24.8799C153.285 24.4761 154.127 24.2742 155.073 24.2742C156.285 24.2742 157.294 24.5915 158.102 25.226C158.921 25.8605 159.457 26.7545 159.711 27.9082H156.561C156.296 27.1699 155.783 26.8007 155.021 26.8007C154.479 26.8007 154.046 27.0141 153.724 27.441C153.4 27.8563 153.239 28.4562 153.239 29.2407C153.239 30.0251 153.4 30.6308 153.724 31.0577C154.046 31.473 154.479 31.6806 155.021 31.6806C155.783 31.6806 156.296 31.3114 156.561 30.5731H159.711C159.457 31.7037 158.921 32.592 158.102 33.2381C157.282 33.8841 156.273 34.2072 155.073 34.2072C154.127 34.2072 153.285 34.0052 152.547 33.6015C151.82 33.1977 151.249 32.6208 150.834 31.871C150.43 31.1211 150.228 30.2443 150.228 29.2407ZM165.689 34.2072C164.743 34.2072 163.889 34.0052 163.128 33.6015C162.378 33.1977 161.784 32.6208 161.346 31.871C160.919 31.1211 160.705 30.2443 160.705 29.2407C160.705 28.2485 160.924 27.3775 161.363 26.6277C161.801 25.8662 162.401 25.2836 163.163 24.8799C163.924 24.4761 164.778 24.2742 165.724 24.2742C166.67 24.2742 167.523 24.4761 168.285 24.8799C169.046 25.2836 169.646 25.8662 170.085 26.6277C170.523 27.3775 170.742 28.2485 170.742 29.2407C170.742 30.2328 170.517 31.1096 170.067 31.871C169.629 32.6208 169.023 33.1977 168.25 33.6015C167.489 34.0052 166.635 34.2072 165.689 34.2072ZM165.689 31.646C166.254 31.646 166.733 31.4384 167.125 31.0231C167.529 30.6077 167.731 30.0136 167.731 29.2407C167.731 28.4677 167.535 27.8736 167.143 27.4583C166.762 27.043 166.289 26.8353 165.724 26.8353C165.147 26.8353 164.668 27.043 164.287 27.4583C163.907 27.862 163.716 28.4562 163.716 29.2407C163.716 30.0136 163.901 30.6077 164.27 31.0231C164.651 31.4384 165.124 31.646 165.689 31.646Z"
      fill="#331274" />
  </g>
  <path
    d="M128.185 42.1515V43.1623H127.859V42.4506H125.826V39.7478H126.167V42.1478H127.518V39.7478H127.855V42.1515H128.185ZM129.544 39.7478H129.862V41.2317C129.862 41.2947 129.861 41.3642 129.859 41.4399C129.859 41.5132 129.857 41.5862 129.855 41.6594C129.852 41.7327 129.849 41.7982 129.844 41.8563C129.841 41.9117 129.838 41.9547 129.836 41.985H129.851L131.339 39.7478H131.717V42.4506H131.399V40.9819C131.399 40.9137 131.401 40.8404 131.403 40.7623C131.406 40.6815 131.408 40.6047 131.411 40.5314C131.416 40.4557 131.42 40.3889 131.422 40.3308C131.424 40.2726 131.427 40.2299 131.43 40.2021H131.414L129.923 42.4506H129.544V39.7478ZM134.676 39.71V40.0431C134.969 40.0482 135.2 40.0961 135.369 40.1869C135.538 40.2778 135.658 40.3989 135.728 40.5503C135.799 40.6993 135.834 40.8659 135.834 41.05C135.834 41.1711 135.815 41.2923 135.777 41.4134C135.742 41.5321 135.68 41.6405 135.592 41.7389C135.504 41.8349 135.385 41.9131 135.236 41.9736C135.087 42.0342 134.901 42.0669 134.676 42.0721V42.4885H134.339V42.0721C134.109 42.0669 133.919 42.0342 133.767 41.9736C133.618 41.9106 133.501 41.8298 133.415 41.7314C133.33 41.6305 133.269 41.5207 133.234 41.402C133.198 41.2833 133.181 41.166 133.181 41.05C133.181 40.9162 133.2 40.7902 133.237 40.6715C133.278 40.5503 133.342 40.4443 133.43 40.3535C133.521 40.2602 133.641 40.1856 133.79 40.1301C133.939 40.0747 134.122 40.0455 134.339 40.0431V39.71H134.676ZM134.339 40.3308C134.137 40.3359 133.976 40.3686 133.854 40.4292C133.736 40.4898 133.651 40.573 133.601 40.679C133.55 40.7826 133.525 40.9048 133.525 41.0462C133.525 41.1952 133.553 41.325 133.608 41.4361C133.667 41.5445 133.755 41.6292 133.873 41.6897C133.995 41.7503 134.15 41.7844 134.339 41.7919V40.3308ZM134.676 41.7919C134.87 41.7844 135.027 41.7489 135.145 41.6859C135.266 41.6229 135.353 41.537 135.406 41.4285C135.462 41.3174 135.49 41.1901 135.49 41.0462C135.49 40.9024 135.465 40.7788 135.414 40.6752C135.363 40.5692 135.279 40.4873 135.16 40.4292C135.042 40.3686 134.88 40.3359 134.676 40.3308V41.7919ZM138.021 39.7478C138.375 39.7478 138.632 39.8173 138.793 39.956C138.955 40.0947 139.036 40.2905 139.036 40.5428C139.036 40.6539 139.017 40.761 138.979 40.8645C138.943 40.9654 138.884 41.0562 138.801 41.1371C138.718 41.2179 138.606 41.2823 138.468 41.3301C138.329 41.3755 138.159 41.3983 137.957 41.3983H137.646V42.4506H137.306V39.7478H138.021ZM137.991 40.0393H137.646V41.1068H137.919C138.091 41.1068 138.233 41.0892 138.347 41.0538C138.46 41.0159 138.545 40.9567 138.6 40.8759C138.656 40.795 138.684 40.689 138.684 40.5579C138.684 40.3838 138.628 40.2537 138.517 40.168C138.406 40.0823 138.231 40.0393 137.991 40.0393ZM142.865 41.0954C142.865 41.305 142.838 41.4953 142.785 41.667C142.732 41.836 142.653 41.9826 142.547 42.1061C142.443 42.2297 142.313 42.3243 142.157 42.39C142.003 42.4557 141.824 42.4885 141.619 42.4885C141.407 42.4885 141.223 42.4557 141.066 42.39C140.91 42.3219 140.78 42.2273 140.677 42.1061C140.573 41.9826 140.496 41.8349 140.446 41.6632C140.395 41.4915 140.37 41.3012 140.37 41.0916C140.37 40.8139 140.415 40.5717 140.506 40.3648C140.597 40.158 140.734 39.9963 140.919 39.8803C141.105 39.7643 141.34 39.7062 141.623 39.7062C141.893 39.7062 142.12 39.7643 142.304 39.8803C142.488 39.9939 142.627 40.1553 142.721 40.3648C142.816 40.5717 142.865 40.8153 142.865 41.0954ZM140.73 41.0954C140.73 41.3225 140.761 41.518 140.824 41.6822C140.887 41.8463 140.984 41.9723 141.116 42.0607C141.249 42.1491 141.417 42.1932 141.619 42.1932C141.824 42.1932 141.99 42.1491 142.119 42.0607C142.25 41.9723 142.347 41.8463 142.41 41.6822C142.473 41.518 142.505 41.3225 142.505 41.0954C142.505 40.7547 142.434 40.4884 142.293 40.2967C142.152 40.1023 141.928 40.0052 141.623 40.0052C141.419 40.0052 141.249 40.0493 141.116 40.1377C140.984 40.2234 140.887 40.3483 140.824 40.5125C140.761 40.6739 140.73 40.8683 140.73 41.0954ZM145.144 39.7478C145.369 39.7478 145.557 39.7692 145.708 39.8122C145.862 39.8552 145.977 39.9257 146.053 40.0242C146.131 40.1226 146.17 40.2537 146.17 40.4178C146.17 40.5238 146.15 40.6185 146.109 40.7017C146.072 40.7826 146.013 40.8507 145.935 40.9062C145.86 40.9591 145.766 40.9956 145.655 41.0159V41.0349C145.769 41.0524 145.871 41.0854 145.962 41.1333C146.055 41.1811 146.128 41.2493 146.181 41.3377C146.234 41.4261 146.261 41.5407 146.261 41.6822C146.261 41.8463 146.223 41.9863 146.147 42.1023C146.072 42.2159 145.963 42.303 145.822 42.3635C145.683 42.4217 145.516 42.4506 145.322 42.4506H144.372V39.7478H145.144ZM145.212 40.8986C145.445 40.8986 145.604 40.8621 145.689 40.7888C145.775 40.7131 145.818 40.602 145.818 40.4557C145.818 40.3067 145.765 40.2007 145.659 40.1377C145.555 40.072 145.389 40.0393 145.159 40.0393H144.713V40.8986H145.212ZM144.713 41.1825V42.1629H145.258C145.498 42.1629 145.664 42.1161 145.757 42.0228C145.851 41.9296 145.897 41.8071 145.897 41.6557C145.897 41.5597 145.876 41.4764 145.833 41.4058C145.793 41.3353 145.723 41.2809 145.625 41.2431C145.529 41.2028 145.398 41.1825 145.231 41.1825H144.713ZM149.438 42.4506L149.113 41.614H148.042L147.72 42.4506H147.375L148.432 39.7365H148.738L149.79 42.4506H149.438ZM148.708 40.4935C148.7 40.4733 148.688 40.4368 148.67 40.3838C148.652 40.3308 148.635 40.2764 148.617 40.221C148.602 40.1629 148.589 40.1188 148.579 40.0885C148.566 40.1391 148.553 40.1907 148.538 40.2437C148.525 40.2943 148.511 40.3408 148.496 40.3838C148.483 40.4268 148.472 40.4633 148.462 40.4935L148.155 41.3112H149.011L148.708 40.4935ZM151.882 41.3301L151.182 42.4506H150.785L151.542 41.2696C151.446 41.2368 151.355 41.1914 151.269 41.1333C151.186 41.0751 151.118 40.9956 151.065 40.8948C151.012 40.7939 150.985 40.6639 150.985 40.5049C150.985 40.2602 151.07 40.0734 151.239 39.9447C151.408 39.8135 151.66 39.7478 151.996 39.7478H152.753V42.4506H152.412V41.3301H151.882ZM152.004 40.0393C151.86 40.0393 151.739 40.0558 151.64 40.0885C151.542 40.1212 151.466 40.1731 151.413 40.2437C151.362 40.3143 151.337 40.4065 151.337 40.52C151.337 40.6866 151.393 40.8153 151.504 40.9062C151.615 40.997 151.786 41.0424 152.019 41.0424H152.412V40.0393H152.004ZM157.028 39.7478C157.381 39.7478 157.638 39.8173 157.8 39.956C157.962 40.0947 158.042 40.2905 158.042 40.5428C158.042 40.6539 158.023 40.761 157.986 40.8645C157.95 40.9654 157.891 41.0562 157.808 41.1371C157.724 41.2179 157.613 41.2823 157.475 41.3301C157.336 41.3755 157.165 41.3983 156.964 41.3983H156.653V42.4506H156.312V39.7478H157.028ZM156.998 40.0393H156.653V41.1068H156.926C157.097 41.1068 157.24 41.0892 157.353 41.0538C157.467 41.0159 157.551 40.9567 157.607 40.8759C157.662 40.795 157.69 40.689 157.69 40.5579C157.69 40.3838 157.635 40.2537 157.524 40.168C157.413 40.0823 157.237 40.0393 156.998 40.0393ZM161.02 42.4506L160.695 41.614H159.623L159.302 42.4506H158.957L160.013 39.7365H160.32L161.372 42.4506H161.02ZM160.29 40.4935C160.282 40.4733 160.269 40.4368 160.252 40.3838C160.234 40.3308 160.216 40.2764 160.199 40.221C160.184 40.1629 160.171 40.1188 160.161 40.0885C160.148 40.1391 160.134 40.1907 160.119 40.2437C160.107 40.2943 160.093 40.3408 160.078 40.3838C160.065 40.4268 160.054 40.4633 160.044 40.4935L159.737 41.3112H160.592L160.29 40.4935ZM164.248 40.38C164.248 40.5641 164.19 40.7107 164.074 40.8191C163.958 40.9251 163.802 40.9932 163.608 41.0235V41.0386C163.835 41.0689 164.008 41.1395 164.127 41.2506C164.245 41.3618 164.305 41.5067 164.305 41.6859C164.305 41.8449 164.264 41.985 164.183 42.1061C164.103 42.2248 163.982 42.3181 163.82 42.3862C163.659 42.4544 163.457 42.4885 163.214 42.4885C163.068 42.4885 162.928 42.4771 162.794 42.4544C162.663 42.4341 162.541 42.3962 162.427 42.3408V42.0304C162.505 42.0683 162.589 42.101 162.677 42.1288C162.768 42.154 162.859 42.1743 162.949 42.1894C163.04 42.2021 163.127 42.2083 163.211 42.2083C163.453 42.2083 163.636 42.1629 163.759 42.0721C163.886 41.9812 163.949 41.8525 163.949 41.6859C163.949 41.5142 163.876 41.3893 163.729 41.3112C163.583 41.233 163.378 41.1938 163.116 41.1938H162.73V40.9099H163.097C163.276 40.9099 163.424 40.8897 163.54 40.8494C163.659 40.8091 163.747 40.7523 163.805 40.679C163.865 40.6033 163.896 40.5149 163.896 40.414C163.896 40.2778 163.845 40.1731 163.744 40.0999C163.643 40.0266 163.512 39.9901 163.351 39.9901C163.182 39.9901 163.04 40.0114 162.927 40.0544C162.816 40.0974 162.707 40.1529 162.601 40.221L162.438 39.9901C162.509 39.9371 162.59 39.8903 162.681 39.85C162.774 39.807 162.877 39.773 162.991 39.7478C163.105 39.7227 163.226 39.71 163.354 39.71C163.549 39.71 163.712 39.7389 163.843 39.797C163.977 39.8552 164.077 39.9347 164.146 40.0355C164.214 40.1339 164.248 40.2488 164.248 40.38ZM166.5 39.7478C166.853 39.7478 167.111 39.8173 167.272 39.956C167.433 40.0947 167.514 40.2905 167.514 40.5428C167.514 40.6539 167.495 40.761 167.458 40.8645C167.422 40.9654 167.363 41.0562 167.28 41.1371C167.196 41.2179 167.085 41.2823 166.946 41.3301C166.808 41.3755 166.637 41.3983 166.435 41.3983H166.125V42.4506H165.784V39.7478H166.5ZM166.47 40.0393H166.125V41.1068H166.398C166.569 41.1068 166.712 41.0892 166.825 41.0538C166.939 41.0159 167.024 40.9567 167.079 40.8759C167.134 40.795 167.162 40.689 167.162 40.5579C167.162 40.3838 167.107 40.2537 166.996 40.168C166.885 40.0823 166.709 40.0393 166.47 40.0393ZM170.492 42.4506L170.167 41.614H169.095L168.773 42.4506H168.429L169.485 39.7365H169.792L170.844 42.4506H170.492ZM169.761 40.4935C169.754 40.4733 169.741 40.4368 169.724 40.3838C169.706 40.3308 169.688 40.2764 169.671 40.221C169.655 40.1629 169.643 40.1188 169.633 40.0885C169.62 40.1391 169.606 40.1907 169.591 40.2437C169.579 40.2943 169.565 40.3408 169.549 40.3838C169.537 40.4268 169.526 40.4633 169.515 40.4935L169.209 41.3112H170.064L169.761 40.4935ZM172.122 42.4506V39.7478H173.727V40.0469H172.463V40.891H172.864C173.134 40.891 173.344 40.9251 173.493 40.9932C173.642 41.0589 173.745 41.1498 173.803 41.2658C173.861 41.3793 173.89 41.5105 173.89 41.6594C173.89 41.8236 173.857 41.9647 173.792 42.0834C173.729 42.2021 173.625 42.293 173.481 42.356C173.338 42.419 173.148 42.4506 172.914 42.4506H172.122ZM172.88 42.1591C173.122 42.1591 173.292 42.1188 173.391 42.038C173.489 41.9547 173.538 41.8284 173.538 41.6594C173.538 41.5435 173.514 41.4513 173.466 41.3831C173.421 41.3125 173.345 41.262 173.239 41.2317C173.136 41.2014 172.997 41.1863 172.823 41.1863H172.463V42.1591H172.88ZM177.718 41.0954C177.718 41.305 177.692 41.4953 177.639 41.667C177.586 41.836 177.506 41.9826 177.4 42.1061C177.297 42.2297 177.167 42.3243 177.01 42.39C176.856 42.4557 176.677 42.4885 176.473 42.4885C176.261 42.4885 176.077 42.4557 175.92 42.39C175.764 42.3219 175.634 42.2273 175.53 42.1061C175.427 41.9826 175.35 41.8349 175.299 41.6632C175.249 41.4915 175.224 41.3012 175.224 41.0916C175.224 40.8139 175.269 40.5717 175.36 40.3648C175.451 40.158 175.588 39.9963 175.772 39.8803C175.959 39.7643 176.194 39.7062 176.477 39.7062C176.747 39.7062 176.974 39.7643 177.158 39.8803C177.342 39.9939 177.481 40.1553 177.574 40.3648C177.67 40.5717 177.718 40.8153 177.718 41.0954ZM175.583 41.0954C175.583 41.3225 175.615 41.518 175.678 41.6822C175.741 41.8463 175.838 41.9723 175.969 42.0607C176.103 42.1491 176.271 42.1932 176.473 42.1932C176.677 42.1932 176.844 42.1491 176.972 42.0607C177.104 41.9723 177.201 41.8463 177.264 41.6822C177.327 41.518 177.359 41.3225 177.359 41.0954C177.359 40.7547 177.288 40.4884 177.147 40.2967C177.005 40.1023 176.782 40.0052 176.477 40.0052C176.272 40.0052 176.103 40.0493 175.969 40.1377C175.838 40.2234 175.741 40.3483 175.678 40.5125C175.615 40.6739 175.583 40.8683 175.583 41.0954ZM179.967 42.4506H179.626V40.0469H178.782V39.7478H180.807V40.0469H179.967V42.4506ZM184.095 42.4506H183.686L182.464 41.0803V42.4506H182.123V39.7478H182.464V41.0576L183.656 39.7478H184.042L182.869 41.0614L184.095 42.4506ZM187.067 42.4506L186.742 41.614H185.67L185.349 42.4506H185.004L186.06 39.7365H186.367L187.419 42.4506H187.067ZM186.337 40.4935C186.329 40.4733 186.317 40.4368 186.299 40.3838C186.281 40.3308 186.264 40.2764 186.246 40.221C186.231 40.1629 186.218 40.1188 186.208 40.0885C186.196 40.1391 186.181 40.1907 186.166 40.2437C186.154 40.2943 186.14 40.3408 186.125 40.3838C186.112 40.4268 186.101 40.4633 186.091 40.4935L185.784 41.3112H186.64L186.337 40.4935Z"
    fill="black" fill-opacity="0.7" />
  <path
    d="M1.85593 28.6241C2.46159 28.6241 2.90286 28.7431 3.17974 28.981C3.45661 29.219 3.59505 29.5542 3.59505 29.9869C3.59505 30.1772 3.56261 30.3611 3.49771 30.5385C3.43715 30.7115 3.33548 30.8672 3.19272 31.0057C3.04995 31.1441 2.8596 31.2544 2.62166 31.3366C2.38372 31.4145 2.0917 31.4534 1.74561 31.4534H1.21349V33.2575H0.629456V28.6241H1.85593ZM1.80401 29.1238H1.21349V30.9538H1.68072C1.9749 30.9538 2.21933 30.9235 2.41401 30.8629C2.60868 30.798 2.75361 30.6964 2.84879 30.5579C2.94396 30.4195 2.99155 30.2378 2.99155 30.0128C2.99155 29.7143 2.89637 29.4915 2.70602 29.3444C2.51567 29.1973 2.215 29.1238 1.80401 29.1238ZM10.0627 33.2575L9.50459 31.8233H7.66812L7.11654 33.2575H6.52601L8.33652 28.6046H8.86215L10.6662 33.2575H10.0627ZM8.81024 29.9025C8.79726 29.8679 8.77563 29.8052 8.74534 29.7143C8.71506 29.6235 8.68478 29.5305 8.65449 29.4353C8.62854 29.3358 8.60691 29.2601 8.5896 29.2082C8.56797 29.2947 8.54418 29.3834 8.51822 29.4742C8.49659 29.5607 8.47279 29.6408 8.44684 29.7143C8.42521 29.7879 8.40574 29.8506 8.38843 29.9025L7.8628 31.3042H9.32938L8.81024 29.9025ZM16.9587 29.7078C16.9587 30.0236 16.8591 30.2746 16.6601 30.4606C16.4611 30.6423 16.1951 30.7591 15.862 30.811V30.837C16.2513 30.8889 16.5477 31.01 16.751 31.2004C16.9543 31.3907 17.056 31.6395 17.056 31.9466C17.056 32.2192 16.9868 32.4593 16.8483 32.6669C16.7099 32.8703 16.5022 33.0303 16.2254 33.1471C15.9485 33.2639 15.6024 33.3223 15.1871 33.3223C14.9362 33.3223 14.6961 33.3029 14.4668 33.2639C14.2418 33.2293 14.032 33.1644 13.8373 33.0693V32.5371C13.9714 32.602 14.1142 32.6583 14.2656 32.7059C14.4213 32.7491 14.5771 32.7837 14.7328 32.8097C14.8886 32.8313 15.0378 32.8421 15.1806 32.8421C15.5959 32.8421 15.9096 32.7643 16.1215 32.6085C16.3378 32.4528 16.446 32.2322 16.446 31.9466C16.446 31.6524 16.3205 31.4383 16.0696 31.3042C15.8187 31.1701 15.4683 31.103 15.0184 31.103H14.3565V30.6163H14.9859C15.2931 30.6163 15.5462 30.5817 15.7452 30.5125C15.9485 30.4433 16.0999 30.3459 16.1994 30.2205C16.3032 30.0907 16.3551 29.9393 16.3551 29.7662C16.3551 29.5326 16.2686 29.3531 16.0956 29.2276C15.9225 29.1022 15.6976 29.0394 15.4207 29.0394C15.1308 29.0394 14.8886 29.0762 14.6939 29.1497C14.5035 29.2233 14.3175 29.3185 14.1358 29.4353L13.8568 29.0394C13.9779 28.9486 14.1164 28.8685 14.2721 28.7993C14.4322 28.7258 14.6095 28.6674 14.8042 28.6241C14.9989 28.5809 15.2065 28.5592 15.4272 28.5592C15.7603 28.5592 16.0393 28.609 16.2643 28.7085C16.4936 28.808 16.6666 28.9443 16.7834 29.1173C16.9002 29.286 16.9587 29.4829 16.9587 29.7078ZM22.1818 28.6241C22.7874 28.6241 23.2287 28.7431 23.5056 28.981C23.7825 29.219 23.9209 29.5542 23.9209 29.9869C23.9209 30.1772 23.8885 30.3611 23.8236 30.5385C23.763 30.7115 23.6613 30.8672 23.5186 31.0057C23.3758 31.1441 23.1855 31.2544 22.9475 31.3366C22.7096 31.4145 22.4176 31.4534 22.0715 31.4534H21.5393V33.2575H20.9553V28.6241H22.1818ZM22.1299 29.1238H21.5393V30.9538H22.0066C22.3008 30.9538 22.5452 30.9235 22.7399 30.8629C22.9345 30.798 23.0795 30.6964 23.1746 30.5579C23.2698 30.4195 23.3174 30.2378 23.3174 30.0128C23.3174 29.7143 23.2222 29.4915 23.0319 29.3444C22.8415 29.1973 22.5409 29.1238 22.1299 29.1238ZM30.3884 33.2575L29.8304 31.8233H27.9939L27.4423 33.2575H26.8519L28.6623 28.6046H29.1879L30.9919 33.2575H30.3884ZM29.136 29.9025C29.123 29.8679 29.1014 29.8052 29.0711 29.7143C29.0408 29.6235 29.0106 29.5305 28.9803 29.4353C28.9543 29.3358 28.9327 29.2601 28.9154 29.2082C28.8937 29.2947 28.87 29.3834 28.844 29.4742C28.8224 29.5607 28.7986 29.6408 28.7726 29.7143C28.751 29.7879 28.7315 29.8506 28.7142 29.9025L28.1886 31.3042H29.6552L29.136 29.9025ZM34.5462 33.2575V28.6241H37.2976V29.1368H35.1302V30.5839H35.8181C36.281 30.5839 36.64 30.6423 36.8953 30.7591C37.1505 30.8716 37.3279 31.0273 37.4274 31.2263C37.5269 31.421 37.5767 31.646 37.5767 31.9012C37.5767 32.1824 37.5204 32.4247 37.4079 32.628C37.2998 32.8313 37.1224 32.9871 36.8758 33.0952C36.6292 33.2034 36.3048 33.2575 35.9024 33.2575H34.5462ZM35.844 32.7578C36.2593 32.7578 36.5514 32.6886 36.7201 32.5501C36.8888 32.4074 36.9732 32.1911 36.9732 31.9012C36.9732 31.7022 36.9321 31.5443 36.8499 31.4275C36.772 31.3063 36.6422 31.2198 36.4605 31.1679C36.2831 31.116 36.0452 31.09 35.7467 31.09H35.1302V32.7578H35.844ZM45.5014 30.9343C45.5014 31.2934 45.456 31.62 45.3651 31.9142C45.2743 32.204 45.138 32.4549 44.9563 32.6669C44.7789 32.8789 44.5561 33.0411 44.2879 33.1536C44.024 33.2661 43.7169 33.3223 43.3664 33.3223C43.003 33.3223 42.6872 33.2661 42.419 33.1536C42.1508 33.0368 41.928 32.8746 41.7506 32.6669C41.5732 32.4549 41.4413 32.2019 41.3548 31.9077C41.2682 31.6135 41.225 31.2869 41.225 30.9278C41.225 30.4519 41.3028 30.0366 41.4586 29.6819C41.6143 29.3271 41.8501 29.0502 42.1659 28.8512C42.4861 28.6522 42.8884 28.5527 43.3729 28.5527C43.8358 28.5527 44.2252 28.6522 44.541 28.8512C44.8568 29.0459 45.0947 29.3228 45.2548 29.6819C45.4192 30.0366 45.5014 30.4541 45.5014 30.9343ZM41.8415 30.9343C41.8415 31.3237 41.8955 31.6589 42.0037 31.9401C42.1118 32.2213 42.2784 32.4376 42.5034 32.5891C42.7327 32.7405 43.0203 32.8162 43.3664 32.8162C43.7169 32.8162 44.0024 32.7405 44.223 32.5891C44.448 32.4376 44.6145 32.2213 44.7227 31.9401C44.8309 31.6589 44.8849 31.3237 44.8849 30.9343C44.8849 30.3503 44.7638 29.8939 44.5215 29.5651C44.2793 29.2319 43.8964 29.0654 43.3729 29.0654C43.0225 29.0654 42.7327 29.1411 42.5034 29.2925C42.2784 29.4396 42.1118 29.6537 42.0037 29.9349C41.8955 30.2118 41.8415 30.5449 41.8415 30.9343ZM50.7188 33.2575H50.1348V29.1368H48.6876V28.6241H52.1594V29.1368H50.7188V33.2575ZM58.229 33.2575L57.671 31.8233H55.8345L55.2829 33.2575H54.6924L56.5029 28.6046H57.0285L58.8325 33.2575H58.229ZM56.9766 29.9025C56.9636 29.8679 56.942 29.8052 56.9117 29.7143C56.8814 29.6235 56.8511 29.5305 56.8209 29.4353C56.7949 29.3358 56.7733 29.2601 56.756 29.2082C56.7343 29.2947 56.7105 29.3834 56.6846 29.4742C56.663 29.5607 56.6392 29.6408 56.6132 29.7143C56.5916 29.7879 56.5721 29.8506 56.5548 29.9025L56.0292 31.3042H57.4957L56.9766 29.9025ZM65.9296 33.2575H65.3456V31.0965H62.9705V33.2575H62.3865V28.6241H62.9705V30.5839H65.3456V28.6241H65.9296V33.2575ZM74.1594 30.9343C74.1594 31.2934 74.114 31.62 74.0231 31.9142C73.9323 32.204 73.796 32.4549 73.6143 32.6669C73.4369 32.8789 73.2141 33.0411 72.9459 33.1536C72.682 33.2661 72.3748 33.3223 72.0244 33.3223C71.661 33.3223 71.3452 33.2661 71.077 33.1536C70.8088 33.0368 70.586 32.8746 70.4086 32.6669C70.2312 32.4549 70.0993 32.2019 70.0127 31.9077C69.9262 31.6135 69.8829 31.2869 69.8829 30.9278C69.8829 30.4519 69.9608 30.0366 70.1166 29.6819C70.2723 29.3271 70.5081 29.0502 70.8239 28.8512C71.144 28.6522 71.5464 28.5527 72.0309 28.5527C72.4938 28.5527 72.8832 28.6522 73.199 28.8512C73.5148 29.0459 73.7527 29.3228 73.9128 29.6819C74.0772 30.0366 74.1594 30.4541 74.1594 30.9343ZM70.4994 30.9343C70.4994 31.3237 70.5535 31.6589 70.6617 31.9401C70.7698 32.2213 70.9364 32.4376 71.1613 32.5891C71.3906 32.7405 71.6783 32.8162 72.0244 32.8162C72.3748 32.8162 72.6604 32.7405 72.881 32.5891C73.106 32.4376 73.2725 32.2213 73.3807 31.9401C73.4888 31.6589 73.5429 31.3237 73.5429 30.9343C73.5429 30.3503 73.4218 29.8939 73.1795 29.5651C72.9372 29.2319 72.5544 29.0654 72.0309 29.0654C71.6805 29.0654 71.3906 29.1411 71.1613 29.2925C70.9364 29.4396 70.7698 29.6537 70.6617 29.9349C70.5535 30.2118 70.4994 30.5449 70.4994 30.9343ZM84.0807 28.6241C84.4657 28.6241 84.788 28.6609 85.0476 28.7344C85.3115 28.808 85.5083 28.9291 85.6381 29.0978C85.7722 29.2666 85.8393 29.4915 85.8393 29.7727C85.8393 29.9544 85.8046 30.1166 85.7354 30.2594C85.6705 30.3979 85.571 30.5147 85.4369 30.6098C85.3071 30.7007 85.1471 30.7634 84.9567 30.798V30.8305C85.1514 30.8608 85.3266 30.917 85.4823 30.9992C85.6424 31.0814 85.7679 31.1982 85.8587 31.3496C85.9496 31.501 85.995 31.6979 85.995 31.9401C85.995 32.2213 85.9301 32.4614 85.8003 32.6604C85.6705 32.8551 85.4845 33.0044 85.2422 33.1082C85.0043 33.2077 84.7188 33.2575 84.3857 33.2575H82.7569V28.6241H84.0807ZM84.1975 30.5969C84.5955 30.5969 84.868 30.5341 85.0151 30.4087C85.1622 30.2789 85.2358 30.0885 85.2358 29.8376C85.2358 29.5824 85.1449 29.4007 84.9632 29.2925C84.7858 29.18 84.5003 29.1238 84.1066 29.1238H83.3409V30.5969H84.1975ZM83.3409 31.0835V32.7643H84.2753C84.6863 32.7643 84.9719 32.6842 85.1319 32.5242C85.292 32.3641 85.372 32.1543 85.372 31.8947C85.372 31.7303 85.3353 31.5875 85.2617 31.4664C85.1925 31.3453 85.0735 31.2523 84.9048 31.1874C84.7404 31.1182 84.5154 31.0835 84.2299 31.0835H83.3409Z"
    fill="black" fill-opacity="0.7" />
  <defs>
    <filter id="filter0_i_17_1136" x="101.604" y="12.3724" width="17.7251" height="26.8039" filterUnits="userSpaceOnUse"
      color-interpolation-filters="sRGB">
      <feFlood flood-opacity="0" result="BackgroundImageFix" />
      <feBlend mode="normal" in="SourceGraphic" in2="BackgroundImageFix" result="shape" />
      <feColorMatrix in="SourceAlpha" type="matrix" values="0 0 0 0 0 0 0 0 0 0 0 0 0 0 0 0 0 0 127 0"
        result="hardAlpha" />
      <feOffset dx="-1.71674" dy="-1.71674" />
      <feGaussianBlur stdDeviation="2.57511" />
      <feComposite in2="hardAlpha" operator="arithmetic" k2="-1" k3="1" />
      <feColorMatrix type="matrix" values="0 0 0 0 1 0 0 0 0 1 0 0 0 0 1 0 0 0 0.12 0" />
      <feBlend mode="normal" in2="shape" result="effect1_innerShadow_17_1136" />
    </filter>
    <filter id="filter1_i_17_1136" x="94.3188" y="23.7867" width="17.7252" height="26.8039" filterUnits="userSpaceOnUse"
      color-interpolation-filters="sRGB">
      <feFlood flood-opacity="0" result="BackgroundImageFix" />
      <feBlend mode="normal" in="SourceGraphic" in2="BackgroundImageFix" result="shape" />
      <feColorMatrix in="SourceAlpha" type="matrix" values="0 0 0 0 0 0 0 0 0 0 0 0 0 0 0 0 0 0 127 0"
        result="hardAlpha" />
      <feOffset dx="1.71674" dy="1.71674" />
      <feGaussianBlur stdDeviation="2.57511" />
      <feComposite in2="hardAlpha" operator="arithmetic" k2="-1" k3="1" />
      <feColorMatrix type="matrix" values="0 0 0 0 1 0 0 0 0 1 0 0 0 0 1 0 0 0 0.12 0" />
      <feBlend mode="normal" in2="shape" result="effect1_innerShadow_17_1136" />
    </filter>
    <filter id="filter2_ii_17_1136" x="124.004" y="20.3425" width="48.4547" height="15.5814"
      filterUnits="userSpaceOnUse" color-interpolation-filters="sRGB">
      <feFlood flood-opacity="0" result="BackgroundImageFix" />
      <feBlend mode="normal" in="SourceGraphic" in2="BackgroundImageFix" result="shape" />
      <feColorMatrix in="SourceAlpha" type="matrix" values="0 0 0 0 0 0 0 0 0 0 0 0 0 0 0 0 0 0 127 0"
        result="hardAlpha" />
      <feOffset dx="-1.71674" dy="-1.71674" />
      <feGaussianBlur stdDeviation="0.858369" />
      <feComposite in2="hardAlpha" operator="arithmetic" k2="-1" k3="1" />
      <feColorMatrix type="matrix" values="0 0 0 0 0.321569 0 0 0 0 0.0901961 0 0 0 0 0.784314 0 0 0 0.24 0" />
      <feBlend mode="normal" in2="shape" result="effect1_innerShadow_17_1136" />
      <feColorMatrix in="SourceAlpha" type="matrix" values="0 0 0 0 0 0 0 0 0 0 0 0 0 0 0 0 0 0 127 0"
        result="hardAlpha" />
      <feOffset dx="1.71674" dy="1.71674" />
      <feGaussianBlur stdDeviation="1.71674" />
      <feComposite in2="hardAlpha" operator="arithmetic" k2="-1" k3="1" />
      <feColorMatrix type="matrix" values="0 0 0 0 0.980392 0 0 0 0 0.486275 0 0 0 0 0.0745098 0 0 0 0.04 0" />
      <feBlend mode="normal" in2="effect1_innerShadow_17_1136" result="effect2_innerShadow_17_1136" />
    </filter>
    <linearGradient id="paint0_linear_17_1136" x1="94.1731" y1="15.1963" x2="114.671" y2="32.0608"
      gradientUnits="userSpaceOnUse">
      <stop stop-color="#7733FF" />
      <stop offset="1" stop-color="#330099" />
    </linearGradient>
    <linearGradient id="paint1_linear_17_1136" x1="119.474" y1="47.7667" x2="98.9762" y2="30.9022"
      gradientUnits="userSpaceOnUse">
      <stop stop-color="#FE7919" />
      <stop offset="1" stop-color="#B33C00" />
    </linearGradient>
    <radialGradient id="paint2_radial_17_1136" cx="0" cy="0" r="1" gradientUnits="userSpaceOnUse"
      gradientTransform="translate(110.432 19.5462) rotate(63.2379) scale(28.2886 20.1149)">
      <stop stop-color="#7C4DFF" />
      <stop offset="1" stop-color="#3F1F99" />
    </radialGradient>
    <linearGradient id="paint3_linear_17_1136" x1="104.907" y1="13.1727" x2="118.182" y2="36.1642"
      gradientUnits="userSpaceOnUse">
      <stop stop-color="#1C1A1A" stop-opacity="0.12" />
      <stop offset="1" stop-color="#0E0D0D" stop-opacity="0" />
    </linearGradient>
    <radialGradient id="paint4_radial_17_1136" cx="0" cy="0" r="1" gradientUnits="userSpaceOnUse"
      gradientTransform="translate(103.215 43.417) rotate(-117.839) scale(26.5851 18.9037)">
      <stop stop-color="#FF8214" />
      <stop offset="1" stop-color="#CC4400" />
    </radialGradient>
    <linearGradient id="paint5_linear_17_1136" x1="108.74" y1="49.7906" x2="95.4661" y2="26.799"
      gradientUnits="userSpaceOnUse">
      <stop stop-color="#453434" stop-opacity="0" />
      <stop offset="1" stop-color="#2E2929" stop-opacity="0.08" />
    </linearGradient>
  </defs>
</svg>