<svg width="32" height="32" viewBox="0 0 32 32" fill="none" xmlns="http://www.w3.org/2000/svg">
<circle cx="16" cy="16" r="16" fill="white"/>
<mask id="mask0_202_763" style="mask-type:alpha" maskUnits="userSpaceOnUse" x="1" y="1" width="30" height="30">
<path d="M16 31C24.2843 31 31 24.2843 31 16C31 7.71573 24.2843 1 16 1C7.71573 1 1 7.71573 1 16C1 24.2843 7.71573 31 16 31Z" fill="#F0F0F0"/>
</mask>
<g mask="url(#mask0_202_763)">
<path d="M3.01236 6.80005C1.82537 8.34439 0.930336 10.1244 0.40918 12.0581H8.27038L3.01236 6.80005Z" fill="#0052B4"/>
<path d="M47 1H0V17H47V1Z" fill="white"/>
<path d="M47 17H0V33H47V17Z" fill="#D52B1E"/>
<path d="M47 11.6667H0V22.3334H47V11.6667Z" fill="#0039A6"/>
</g>
</svg>
