<svg width="17" height="17" viewBox="0 0 17 17" fill="none" xmlns="http://www.w3.org/2000/svg">
  <g clip-path="url(#clip0_11_662)">
    <path
      d="M16.7696 3.4218C15.7341 3.46946 15.7567 3.46557 15.6397 3.47536L16.2529 1.72645C16.2529 1.72645 14.3387 2.42965 13.8534 2.55544C12.579 1.41153 10.6846 1.36099 9.33028 2.19224C8.22121 2.87311 7.62593 4.04236 7.82448 5.409C5.66602 5.10989 3.84739 4.08813 2.41155 2.36569L1.95743 1.82101L1.61809 2.44332C1.18921 3.22967 1.0468 4.12877 1.21697 4.97494C1.28679 5.32209 1.40547 5.65318 1.56987 5.96321L1.18029 5.81246L1.13408 6.46248C1.08723 7.12279 1.30739 7.89359 1.72308 8.52417C1.84013 8.70176 1.99083 8.89678 2.18185 9.08917L1.98054 9.05832L2.22618 9.80315C2.54907 10.7818 3.2197 11.5389 4.09002 11.9598C3.22084 12.3281 2.51868 12.5632 1.36453 12.9423L0.308594 13.2889L1.2839 13.8214C1.65577 14.0245 2.96979 14.7026 4.26811 14.906C7.1541 15.358 10.4034 14.9899 12.5909 13.0225C14.4334 11.3654 15.038 9.00828 14.9124 6.55529C14.8934 6.18394 14.9953 5.82951 15.1992 5.55749C15.6078 5.01281 16.767 3.42544 16.7696 3.4218ZM14.428 4.98058C14.0893 5.4322 13.9196 6.00898 13.95 6.60445C14.0767 9.07876 13.4026 10.9976 11.9461 12.3074C10.2448 13.8376 7.5006 14.4382 4.41743 13.9553C3.85907 13.8678 3.282 13.6721 2.80439 13.4765C3.77204 13.1441 4.51928 12.8477 5.72605 12.2773L7.41068 11.4811L5.55073 11.3622C4.65981 11.3052 3.91797 10.8741 3.46196 10.174C3.70409 10.16 3.93756 10.1208 4.17002 10.0561L5.94394 9.56273L4.1552 9.12529C3.28601 8.91271 2.79057 8.39337 2.52797 7.99505C2.35554 7.73331 2.24289 7.46517 2.17532 7.21798C2.35466 7.26601 2.56376 7.30025 2.90096 7.33361L4.55658 7.49715L3.24482 6.47528C2.29965 5.73909 1.92088 4.63306 2.19856 3.56979C5.14835 6.62515 8.61179 6.39551 8.96042 6.47628C8.88369 5.73194 8.88168 5.73019 8.86158 5.65933C8.41512 4.08324 9.39357 3.28297 9.83488 3.01207C10.7567 2.44633 12.2199 2.36105 13.2334 3.29313C13.4523 3.49429 13.7483 3.57343 14.0254 3.5047C14.274 3.443 14.4781 3.37766 14.6779 3.30655L14.262 4.49272L14.7929 4.4931C14.6927 4.62729 14.5725 4.78795 14.428 4.98058Z"
      fill="#172863" />
  </g>
  <defs>
    <clipPath id="clip0_11_662">
      <rect width="16.461" height="16.4384" fill="white" transform="translate(0.308594 0.117188)" />
    </clipPath>
  </defs>
</svg>